<svg width="19" height="19" viewBox="0 0 19 19" fill="none" xmlns="http://www.w3.org/2000/svg">
    <g opacity="0.6">
        <path d="M14.9327 2.35779H3.92965C3.06154 2.35779 2.35779 3.06154 2.35779 3.92965V14.9327C2.35779 15.8008 3.06154 16.5046 3.92965 16.5046H14.9327C15.8008 16.5046 16.5046 15.8008 16.5046 14.9327V3.92965C16.5046 3.06154 15.8008 2.35779 14.9327 2.35779Z" stroke="#EFEFEF" stroke-width="1.57187" stroke-linecap="round" stroke-linejoin="round"/>
        <path d="M6.68042 7.85932C7.33151 7.85932 7.85932 7.33151 7.85932 6.68042C7.85932 6.02934 7.33151 5.50153 6.68042 5.50153C6.02934 5.50153 5.50153 6.02934 5.50153 6.68042C5.50153 7.33151 6.02934 7.85932 6.68042 7.85932Z" stroke="#EFEFEF" stroke-width="1.57187" stroke-linecap="round" stroke-linejoin="round"/>
        <path d="M16.5046 11.789L12.5749 7.85931L3.92969 16.5046" stroke="#EFEFEF" stroke-width="1.57187" stroke-linecap="round" stroke-linejoin="round"/>
    </g>
</svg>
