<svg width="19" height="19" viewBox="0 0 19 19" fill="none" xmlns="http://www.w3.org/2000/svg">
    <g opacity="0.6" clip-path="url(#clip0_2_89)">
        <path d="M7.85931 10.2171C8.19683 10.6684 8.62745 11.0417 9.12195 11.3119C9.61646 11.5821 10.1633 11.7427 10.7253 11.783C11.2874 11.8232 11.8515 11.7421 12.3795 11.5452C12.9074 11.3482 13.3869 11.0401 13.7852 10.6415L16.143 8.28374C16.8589 7.5426 17.255 6.54995 17.246 5.51961C17.237 4.48926 16.8238 3.50366 16.0952 2.77506C15.3666 2.04647 14.381 1.63319 13.3506 1.62424C12.3203 1.61529 11.3276 2.01138 10.5865 2.7272L9.2347 4.07114" stroke="#EFEFEF" stroke-width="1.57187" stroke-linecap="round" stroke-linejoin="round"/>
        <path d="M11.003 8.64526C10.6655 8.19404 10.2349 7.82067 9.7404 7.5505C9.2459 7.28033 8.69908 7.11967 8.13702 7.07942C7.57497 7.03917 7.01083 7.12026 6.48287 7.31721C5.95492 7.51415 5.47549 7.82234 5.07711 8.22086L2.71931 10.5787C2.00349 11.3198 1.60741 12.3124 1.61636 13.3428C1.62531 14.3731 2.03859 15.3587 2.76718 16.0873C3.49577 16.8159 4.48138 17.2292 5.51173 17.2382C6.54207 17.2471 7.53471 16.851 8.27586 16.1352L9.6198 14.7913" stroke="#EFEFEF" stroke-width="1.57187" stroke-linecap="round" stroke-linejoin="round"/>
    </g>
    <defs>
        <clipPath id="clip0_2_89">
            <rect width="18.8624" height="18.8624" fill="white"/>
        </clipPath>
    </defs>
</svg>
