<svg width="19" height="19" viewBox="0 0 19 19" fill="none" xmlns="http://www.w3.org/2000/svg">
    <g clip-path="url(#clip0_9_71)">
        <path d="M7.85938 10.2171C8.1969 10.6684 8.62751 11.0417 9.12202 11.3119C9.61652 11.5821 10.1633 11.7427 10.7254 11.783C11.2875 11.8232 11.8516 11.7421 12.3795 11.5452C12.9075 11.3482 13.3869 11.0401 13.7853 10.6415L16.1431 8.28373C16.8589 7.54259 17.255 6.54995 17.2461 5.5196C17.2371 4.48926 16.8238 3.50365 16.0952 2.77506C15.3666 2.04646 14.381 1.63319 13.3507 1.62423C12.3203 1.61528 11.3277 2.01137 10.5866 2.72719L9.23476 4.07113" stroke="black" stroke-width="1.57187" stroke-linecap="round" stroke-linejoin="round"/>
        <path d="M11.003 8.64528C10.6655 8.19405 10.2349 7.82069 9.7404 7.55052C9.2459 7.28035 8.69908 7.11969 8.13702 7.07944C7.57497 7.03918 7.01083 7.12028 6.48287 7.31722C5.95492 7.51417 5.47549 7.82235 5.07711 8.22087L2.71931 10.5787C2.00349 11.3198 1.60741 12.3125 1.61636 13.3428C1.62531 14.3731 2.03859 15.3588 2.76718 16.0873C3.49577 16.8159 4.48138 17.2292 5.51173 17.2382C6.54207 17.2471 7.53471 16.851 8.27586 16.1352L9.6198 14.7913" stroke="black" stroke-width="1.57187" stroke-linecap="round" stroke-linejoin="round"/>
    </g>
    <defs>
        <clipPath id="clip0_9_71">
            <rect width="18.8624" height="18.8624" fill="white"/>
        </clipPath>
    </defs>
</svg>
