<svg width="84" height="96" viewBox="0 0 84 96" fill="none" xmlns="http://www.w3.org/2000/svg">
    <g clip-path="url(#clip0_2_195)">
        <path d="M40.0659 39.2605L20.6646 1.88235C20.5744 1.70308 20.4842 1.52381 20.3037 1.34454C19.8525 0.537815 19.0403 0 18.0477 0H2.70716C1.1731 0 0 1.16527 0 2.68908V84.9748C0 86.4986 1.1731 87.6639 2.70716 87.6639H18.0477C19.5818 87.6639 20.7549 86.4986 20.7549 84.9748V51.8095C20.7549 51.3613 21.1158 51.0924 21.4768 51.0924H21.6573C21.928 51.0924 22.1987 51.2717 22.2889 51.451L22.3792 51.5406L30.9518 68.1232C32.4859 70.902 34.02 71.7983 35.554 71.7983H47.3753C48.9093 71.7983 50.8946 70.4538 52.1579 67.8543L60.6404 51.5406C60.6404 51.451 60.7306 51.451 60.7306 51.451C60.8208 51.2717 61.0915 51.0924 61.3623 51.0924H61.5427C61.9939 51.0924 62.2646 51.451 62.2646 51.8095V84.8851C62.2646 86.409 63.4377 87.5742 64.9718 87.5742H80.3124C81.8464 87.5742 83.0195 86.409 83.0195 84.8851V2.68908C83.0195 1.16527 81.8464 0 80.3124 0H64.9718C63.9792 0 63.167 0.537815 62.6256 1.34454C62.5354 1.52381 62.3549 1.70308 62.2646 1.88235L43.2243 39.2605C42.4122 40.605 40.8781 40.605 40.0659 39.2605Z" fill="#EFEFEF"/>
        <path d="M45.2095 91.6975C48.3679 91.5182 51.436 91.6079 60.0989 86.9468C60.0989 87.2157 57.2113 92.4146 51.7067 95.6415C50.8043 96.0897 50.0824 96.986 45.2095 91.6975Z" fill="#EFEFEF"/>
        <path d="M37.9904 91.6975C34.8321 91.5182 31.764 91.6079 23.1011 86.9468C23.1011 87.2157 25.9887 92.4146 31.4933 95.6415C32.3957 96.0897 33.1176 96.986 37.9904 91.6975Z" fill="#EFEFEF"/>
    </g>
    <defs>
        <clipPath id="clip0_2_195">
            <rect width="83.2" height="96" fill="white"/>
        </clipPath>
    </defs>
</svg>
