<svg width="180" height="390" viewBox="0 0 180 390" fill="none" xmlns="http://www.w3.org/2000/svg">
    <g clip-path="url(#clip0_9_475)">
        <path d="M120.534 390C123.591 389.781 126.939 388.977 128.031 387.514C128.904 386.418 128.831 381.738 128.904 380.422C129.341 374.426 123.3 366.676 119.951 361.997C117.622 358.78 112.091 345.692 107.869 346.716C105.249 347.374 101.609 352.93 101.173 355.489C100.518 359.218 103.356 361.558 104.739 364.702C106.559 368.723 108.961 372.964 109.397 377.497C109.761 381.446 111.654 388.245 115.803 389.635C116.894 390 118.641 390.073 120.534 390Z" fill="#141C41"/>
        <path d="M78.9001 265.923C72.9317 265.484 66.9632 264.68 60.9948 264.606C55.3902 264.46 49.6401 264.46 44.3995 262.34C44.1084 264.899 42.1432 266.581 41.1969 268.774C39.0861 273.746 37.3393 278.572 35.8108 283.763C33.2632 292.537 28.1682 299.263 25.8391 307.818C23.6555 315.934 23.6555 324.488 22.3453 332.824C21.3991 338.746 20.089 343.864 20.089 350.371C20.089 360.754 20.3801 371.502 29.9151 377.205C39.1589 382.689 49.9313 381.153 56.482 372.16C65.3619 359.949 62.96 342.84 68.2734 329.168C72.6405 318.054 83.6312 309.353 94.4036 318.639C103.575 326.609 104.011 340.062 107.869 350.737C112.018 362.289 121.262 372.452 133.271 375.962C146.737 379.91 156.49 371.575 156.199 357.756C155.908 340.501 144.553 324.927 138.876 309.134C135.964 301.164 133.999 292.829 132.107 284.567C131.743 283.032 126.575 264.095 126.721 264.022C119.151 267.604 113.692 267.239 105.321 267.019C96.6599 266.8 87.78 266.654 78.9001 265.923Z" fill="#B3B3B3"/>
        <path d="M68.4917 316.153C70.4569 316.007 72.5677 316.738 74.7513 316.665C78.9729 316.373 83.4857 318.054 87.5617 317.104C90.9826 316.3 94.5491 316.007 98.0429 315.057C104.448 313.375 110.635 314.764 116.967 313.448C117.55 313.302 117.404 311.986 117.04 311.693C108.378 306.502 98.1157 308.184 88.5807 309.573C81.666 310.523 75.3336 314.399 68.5645 315.788C68.3461 315.715 68.3461 316.153 68.4917 316.153Z" fill="#141C41"/>
        <path d="M86.4699 317.542C91.1282 318.2 95.9321 318.127 100.663 318.639C106.049 319.151 111.435 321.929 116.822 321.271C117.331 321.198 117.186 319.955 116.894 319.736C112.673 316.519 107.796 316.738 102.628 316.372C97.315 316.007 91.7105 315.861 86.4699 316.665C86.1787 316.665 86.1787 317.469 86.4699 317.542Z" fill="#141C41"/>
        <path d="M90.9826 316.007C94.1124 316.665 96.9511 320.174 99.7897 322.295C104.302 325.658 109.98 329.533 115.803 329.241C116.312 329.241 116.167 327.925 115.948 327.632C110.999 322.222 104.011 320.247 97.8245 316.519C96.8783 315.934 93.3845 312.497 92.1472 313.301C91.201 313.96 91.6377 315.056 91.0554 315.934C90.9098 315.934 90.9098 316.007 90.9826 316.007Z" fill="#141C41"/>
        <path d="M87.6344 316.226C87.78 316.226 87.78 315.714 87.6344 315.714C87.4161 315.641 87.4161 316.226 87.6344 316.226Z" fill="#141C41"/>
        <path d="M167.918 44.3813C163.623 44.7469 155.471 48.4758 153.651 45.0394C153.069 43.9426 154.525 34.2913 154.307 34.2182C150.667 33.3408 144.335 30.4162 141.715 27.784C136.911 23.1046 138.876 18.279 141.059 13.3802C142.442 14.1114 142.734 13.3071 143.316 15.4274C143.316 13.3802 143.243 11.4061 143.389 9.43194C145.791 8.99325 148.411 9.21259 150.23 10.8211C152.924 6.79977 160.202 11.6254 162.968 10.2362C166.316 13.5264 168.718 22.5928 169.155 26.9066C169.81 32.4634 167.699 38.5321 167.918 44.3813Z" fill="#FB7762"/>
        <path d="M143.753 14.0383C141.86 14.6963 146.955 21.5692 148.12 18.1327C148.265 17.694 148.411 17.2554 148.484 16.7435C148.484 16.4511 148.556 16.0855 148.556 15.793C148.848 15.0619 148.702 14.6963 148.047 14.7694C148.338 16.5242 149.211 18.2059 150.231 19.6682C152.996 23.3971 154.889 18.3521 155.398 15.9393C155.544 15.135 154.743 13.0146 154.379 14.6232C153.87 16.8898 153.797 20.6187 156.708 21.1305C159.984 21.6423 160.712 16.0855 160.566 14.1114C160.493 13.0146 159.693 12.3566 159.474 13.8189C159.183 16.0124 159.402 22.8853 163.259 20.0338C163.55 19.8144 163.623 18.7908 163.259 18.5714C161.585 17.8403 160.275 16.4511 160.566 14.4038C160.202 14.3307 159.838 14.1845 159.474 14.1114C159.765 18.5714 154.743 19.5951 155.398 15.6468C155.034 15.4275 154.67 15.2081 154.307 14.9888C153.288 22.4466 149.503 17.1091 148.338 13.3802C148.12 12.6491 147.829 13.5264 147.829 13.892C147.974 15.3543 148.338 19.0833 145.791 17.694C145.427 17.4747 142.515 14.9156 143.68 14.1845C143.753 14.1114 143.753 14.0383 143.753 14.0383Z" fill="#141C41"/>
        <path d="M144.116 14.9156C144.116 14.9888 144.116 15.135 144.116 15.2081C144.116 15.2081 144.116 15.3543 144.189 15.3543C144.262 15.3543 144.262 15.2812 144.262 15.2081C144.262 14.9888 144.262 14.7694 144.262 14.5501C144.262 14.4038 144.189 14.3307 144.116 14.5501C144.116 14.7694 143.971 15.2812 144.189 15.4274C144.262 15.4274 144.262 15.3543 144.262 15.3543C144.189 15.135 144.189 14.9888 144.116 14.9156C144.189 14.8425 144.116 14.8425 144.116 14.9156Z" fill="#141C41"/>
        <path d="M30.4246 16.7436C29.4784 10.2363 45.2002 -6.14162 47.0198 2.41294C48.6939 2.48605 53.4978 1.7549 53.2794 4.67953C54.5168 4.82576 55.2446 4.0946 56.4092 4.60641C60.1941 6.21496 59.1751 14.2577 58.5928 17.4017C57.8649 21.5693 58.0833 22.8123 54.0801 23.7628C50.9503 24.567 47.0198 23.6165 43.8172 23.909C42.7254 26.6874 41.7792 29.6852 40.3963 32.3173C39.3773 32.5367 29.9151 27.8573 28.8233 26.9067C25.0384 23.6165 29.1872 19.0102 30.279 15.062V16.7436H30.4246Z" fill="#FB7762"/>
        <path d="M43.0894 0.80451C40.6874 1.97436 37.4848 6.2882 38.795 9.13972C40.6146 13.1611 45.4185 6.06885 46.3647 4.53342C46.5831 4.16784 46.292 2.77864 46.0008 3.29045C44.6907 5.41081 41.3425 8.26233 42.5799 11.1138C44.3995 15.4277 48.33 11.187 50.5863 9.79776C50.368 8.84725 50.2224 7.89675 50.004 6.94624C48.4027 9.28595 47.3837 12.2106 48.4755 14.989C48.985 16.232 50.9503 16.4513 51.8965 15.7933C53.6433 14.5503 54.1529 12.6493 55.2446 10.9676C55.0991 10.4558 54.8807 10.0171 54.7351 9.57841C54.0801 11.2601 52.4788 14.1847 53.7161 16.0126C55.3902 18.3523 57.5738 17.4018 58.3017 14.9159C58.4472 14.4041 57.8649 12.3568 57.501 13.5267C56.2636 15.5008 55.3174 15.3546 54.6623 13.088C54.8807 12.2837 55.1719 11.4794 55.3902 10.6752C55.463 10.4558 55.3174 8.84725 54.8079 9.43218C53.425 11.2601 52.1876 13.3073 49.5673 12.1375C49.6401 12.3568 49.6401 12.5762 49.7129 12.7224C49.8585 12.2837 50.0768 11.845 50.2952 11.4063C50.5863 10.6752 50.8775 9.94399 51.023 9.13972C51.0958 8.77414 50.8047 5.8495 50.004 7.01936C48.8395 8.70102 46.947 10.3827 44.9818 10.7483C41.852 11.3332 46.1464 5.26458 46.4375 4.60653C46.292 4.24096 46.1464 3.80226 46.0008 3.43668C44.909 5.63016 43.4533 7.75052 41.4881 9.13972C40.7602 9.72464 40.1051 9.65153 39.3773 8.99349C38.2127 7.82363 39.814 5.41081 40.3963 4.4603C41.1241 3.29045 41.9976 2.1206 43.1622 1.38944C43.3077 1.17009 43.2349 0.731394 43.0894 0.80451Z" fill="#141C41"/>
        <path d="M3.20259 73.3355C5.7501 65.8045 9.38941 58.5661 12.8104 51.6932C14.9939 47.2331 16.8136 42.5537 18.4877 37.8743C19.7978 34.1454 20.5985 27.4918 23.146 24.421C28.1682 18.2061 36.757 28.881 43.0894 29.3928C41.7792 35.4615 39.8868 41.457 37.5576 47.16C35.5924 52.0588 34.6462 57.5424 33.336 62.6606C30.5702 73.5548 33.0449 93.3692 24.6745 101.851C26.203 99.3647 28.6777 98.1217 31.5164 98.9991C32.317 101.924 31.8803 104.702 29.4784 106.457C32.3898 104.263 34.8645 115.158 36.4658 116.62C43.5989 122.835 48.0388 130.658 56.1181 135.776C63.9062 140.675 72.8589 143.6 82.0299 143.38C90.6915 143.161 99.4258 142.796 107.869 140.748C117.113 138.482 120.607 133.875 127.23 127.734C131.306 123.932 136.183 120.861 140.113 116.913C141.787 115.231 143.243 113.257 144.262 111.136C145.499 108.577 145.354 106.384 145.863 103.752C146.446 100.754 149.211 100.315 151.613 101.704C150.23 99.9496 149.357 98.0486 149.211 95.8552C148.993 93.2961 150.23 92.3456 152.56 91.6876C152.851 89.7134 152.05 87.8124 151.395 86.0576C150.594 83.9373 150.376 81.7438 150.376 79.4041C150.376 76.9913 151.541 74.944 151.759 72.6043C152.05 69.1679 151.541 65.7314 151.905 62.2219C152.341 57.9811 151.759 53.8135 151.468 49.6459C150.958 42.5537 151.905 39.4097 158.237 37.3625C162.24 36.1195 166.535 34.2185 170.683 33.7067C170.902 39.7022 172.43 45.0396 172.794 51.0351C173.304 61.2714 174.104 71.0689 177.016 80.8664C179.563 89.4941 181.528 99.8034 178.69 108.65C171.848 129.854 151.541 150.326 136.037 165.827C134.509 167.362 129.123 170.287 129.05 172.481C128.904 174.893 133.417 176.063 134.29 177.818C137.129 183.521 131.306 184.545 130.36 190.54C130.069 192.441 131.524 196.609 131.524 198.949C131.597 209.477 127.012 218.909 127.085 229.365C127.085 236.384 133.854 266.727 126.138 269.725C121.553 271.479 115.293 269.213 110.489 269.14C98.7707 269.067 86.8338 267.166 74.9697 268.116C67.6911 268.701 44.7634 270.31 42.5799 261.974C41.7064 258.538 44.9818 251.299 45.3457 247.571C46.0008 240.917 46.0736 234.044 46.1464 227.391C46.2192 216.789 40.5418 211.89 37.2665 202.604C34.6462 194.927 33.2632 185.422 31.3708 177.233C29.1872 167.874 28.7505 160.782 24.6745 152.301C15.9402 134.022 5.89567 119.472 1.16458 99.6572C-1.09179 90.5177 0.291145 81.7438 3.20259 73.3355Z" fill="#141C41"/>
        <path d="M46.6559 261.024C49.0578 259.927 51.387 259.269 53.9345 258.611C54.0801 258.538 54.0801 258.099 53.9345 258.099C51.3142 257.514 48.8395 258.977 46.5831 260.22C46.292 260.293 46.3647 261.17 46.6559 261.024Z" fill="#E5C100"/>
        <path d="M54.444 261.608C56.3364 261.17 58.3017 260.731 60.1213 259.781C60.2669 259.707 60.2669 259.123 60.0485 259.123C58.0833 259.123 56.1909 260 54.3712 260.731C54.2256 260.877 54.2256 261.608 54.444 261.608Z" fill="#E5C100"/>
        <path d="M60.7036 263.729C62.8144 262.852 65.1436 262.34 67.3999 261.974C67.5455 261.974 67.5455 261.536 67.3999 261.462C64.9252 261.17 62.7416 261.901 60.6308 263.071C60.4125 263.217 60.4852 263.802 60.7036 263.729Z" fill="#E5C100"/>
        <path d="M68.4917 263.071C70.6025 262.632 72.7133 262.34 74.6785 261.389C74.8241 261.316 74.7513 260.877 74.6057 260.877C72.4949 261.243 70.3841 261.755 68.4189 262.632C68.4189 262.705 68.4189 263.071 68.4917 263.071Z" fill="#E5C100"/>
        <path d="M76.9349 263.729C79.1185 263.144 81.0837 262.194 83.1217 261.316C83.1945 261.316 83.1945 261.024 83.1217 261.024C81.0109 261.609 79.0457 262.559 76.9349 263.144C76.7165 263.144 76.7893 263.802 76.9349 263.729Z" fill="#E5C100"/>
        <path d="M83.704 264.753C86.5427 263.217 89.5997 262.34 92.6567 261.389C92.8023 261.316 92.8023 260.877 92.6567 260.877C89.3813 261.243 86.3971 262.559 83.6312 264.241C83.5584 264.387 83.6312 264.899 83.704 264.753Z" fill="#E5C100"/>
        <path d="M92.1472 265.411C95.0586 264.095 98.2612 263.51 101.173 262.048C101.318 261.975 101.245 261.463 101.1 261.463C98.2612 262.194 94.3308 262.706 92.0744 264.899C92.0016 264.972 92.0016 265.484 92.1472 265.411Z" fill="#E5C100"/>
        <path d="M100.081 266.581C103.356 264.607 106.559 263.144 110.125 261.974C110.271 261.901 110.271 261.536 110.125 261.536C106.34 261.609 103.065 264.022 99.9353 265.923C99.7897 265.996 99.8625 266.727 100.081 266.581Z" fill="#E5C100"/>
        <path d="M107.942 266.434C110.198 264.241 112.818 262.779 115.803 261.828C115.875 261.828 115.875 261.536 115.803 261.536C112.673 261.974 110.125 263.802 107.869 265.996C107.796 266.142 107.869 266.508 107.942 266.434Z" fill="#E5C100"/>
        <path d="M114.129 267.019C116.094 265.191 118.714 264.533 120.898 263.071C120.97 262.998 120.97 262.706 120.898 262.706C118.496 263.437 115.948 264.899 114.129 266.654C113.983 266.727 114.056 267.092 114.129 267.019Z" fill="#E5C100"/>
        <path d="M119.733 267.604C123.227 265.996 126.866 264.606 130.433 263.071C130.505 262.998 130.505 262.632 130.36 262.632C126.575 263.583 123.081 265.264 119.66 267.092C119.515 267.166 119.588 267.677 119.733 267.604Z" fill="#E5C100"/>
        <path d="M62.1593 250.422C62.3049 250.203 62.4505 249.984 62.6688 249.764C63.1055 249.179 63.1055 248.082 62.8872 247.424C62.7416 246.986 62.3049 246.181 61.8682 246.84C61.2859 247.644 61.2131 248.667 61.2859 249.618C61.2859 249.984 61.6498 251.08 62.1593 250.422Z" fill="#E5C100"/>
        <path d="M76.7165 254.005C76.6437 254.151 77.0805 253.127 76.8621 253.712C76.8621 253.639 76.9349 253.566 76.9349 253.493C76.8621 253.639 76.8621 253.639 76.9349 253.493C77.2988 253.127 77.3716 252.542 77.3716 252.104C77.3716 251.665 77.2988 250.788 76.7165 250.641C76.207 250.568 75.9159 251.226 75.8431 251.592C75.6247 252.323 75.7703 253.054 75.9887 253.712C76.1342 254.151 76.571 254.59 76.7165 254.005Z" fill="#E5C100"/>
        <path d="M85.5965 254.809C85.8148 254.371 86.0332 254.005 86.2515 253.566C86.106 254.005 85.8148 254.444 85.5965 254.809C85.8876 254.809 86.0332 254.882 86.2515 254.663C86.9794 254.224 86.9066 252.835 86.8338 252.104C86.761 251.665 86.5427 250.642 85.9604 250.642C85.1597 250.642 84.8686 251.811 84.8686 252.396C84.7958 252.981 84.7958 254.809 85.5965 254.809Z" fill="#E5C100"/>
        <path d="M121.407 252.689C121.334 252.689 121.262 252.689 121.189 252.616C121.262 252.835 121.407 253.054 121.48 253.201C121.48 253.274 121.48 253.347 121.48 253.347C121.407 253.566 121.334 253.785 121.262 253.932C121.189 254.078 121.553 253.712 121.48 253.785C121.844 253.493 121.844 252.835 121.771 252.396C121.698 252.104 121.407 251.226 121.043 251.738C120.679 252.177 120.534 252.762 120.607 253.347C120.607 253.566 120.97 254.443 121.262 253.932C121.334 253.859 121.407 253.785 121.48 253.712C121.771 253.785 121.698 252.762 121.407 252.689Z" fill="#E5C100"/>
        <path d="M45.4913 240.551C48.6211 238.87 51.387 236.384 52.8427 233.093C52.8427 233.02 52.8427 232.582 52.6971 232.728C50.8047 235.799 48.33 237.992 45.4185 239.966C45.2729 240.113 45.3457 240.624 45.4913 240.551Z" fill="#E5C100"/>
        <path d="M52.1876 233.678C53.2066 234.921 54.2984 236.018 55.3174 237.261C56.5548 238.797 57.4282 240.478 58.3744 242.16C58.52 242.379 58.52 241.94 58.52 241.867C57.7194 238.431 54.8807 235.506 52.2604 233.313C52.1148 233.24 52.1148 233.605 52.1876 233.678Z" fill="#E5C100"/>
        <path d="M58.4472 240.917C59.1023 238.797 63.1783 231.193 65.2163 235.214C66.5265 237.846 68.055 239.966 70.7481 241.209C70.8209 241.283 70.8937 241.136 70.9664 241.063C71.9854 239.162 73.15 237.846 74.6057 236.311C76.571 234.19 77.226 234.41 78.7545 236.603C80.2831 238.87 81.3749 241.283 83.704 242.672C83.8496 242.745 83.9224 242.233 83.7768 242.087C80.9381 239.308 79.3368 235.653 76.4982 232.947C76.4254 232.874 76.3526 232.874 76.2798 232.947C74.8241 235.068 72.4949 236.749 71.3304 239.016C69.4379 242.599 64.7068 233.02 64.1245 231.924C64.0518 231.851 63.979 231.777 63.9062 231.851C61.941 234.775 59.1023 237.042 58.3017 240.551C58.3017 240.844 58.3744 241.136 58.4472 240.917Z" fill="#E5C100"/>
        <path d="M84.8686 242.014C85.8876 239.601 87.125 237.919 88.7263 235.945C91.0554 233.094 92.4383 235.58 93.5301 237.846C94.6219 240.113 95.7865 242.014 97.7517 243.549C97.8245 243.622 97.9701 243.476 97.9701 243.403C98.2612 242.818 103.283 231.412 105.977 236.457C107.141 238.724 107.869 240.99 109.47 242.964C109.543 243.111 109.689 243.038 109.761 242.964C110.708 241.795 111.508 240.698 112.236 239.382C112.236 239.382 115.584 234.264 115.875 235.799C116.312 238.066 116.967 240.186 117.841 242.306C117.913 242.453 118.059 242.599 118.205 242.379C119.442 240.332 120.534 238.358 122.353 236.75C124.683 234.629 127.667 240.405 128.613 241.356C129.05 241.795 129.123 240.405 128.904 240.113C127.376 238.358 126.211 236.75 124.974 234.629C124.974 234.556 124.901 234.41 124.755 234.483C123.3 234.922 122.062 235.36 121.043 236.603C120.097 237.7 119.296 238.87 118.569 240.113C117.622 241.648 115.73 232.655 115.948 233.825C115.948 233.752 115.803 233.24 115.657 233.459C113.401 235.58 112.018 238.285 110.271 240.844C109.252 242.379 105.394 234.19 104.594 232.874C104.521 232.801 104.448 232.801 104.375 232.801C101.537 235.068 99.8625 237.919 98.2612 241.063C97.1694 243.33 91.8561 233.606 91.0554 232.436C90.9826 232.363 90.9826 232.363 90.9098 232.436C88.5807 235.433 86.1787 238.139 84.7958 241.721C84.7958 241.941 84.7958 242.087 84.8686 242.014Z" fill="#E5C100"/>
        <path d="M45.4913 225.489C48.4755 225.051 51.6781 225.27 54.5168 224.1C54.6623 224.027 54.6623 223.588 54.444 223.588C51.5325 223.369 48.33 223.881 45.4185 224.466C45.1274 224.612 45.2002 225.563 45.4913 225.489Z" fill="#E5C100"/>
        <path d="M46.5831 227.683C48.985 228.414 51.6053 228.414 53.9345 227.537C54.0801 227.464 54.0073 227.025 53.8617 227.025C51.387 227.244 48.985 227.244 46.5103 226.879C46.3647 226.806 46.3647 227.61 46.5831 227.683Z" fill="#E5C100"/>
        <path d="M56.1181 224.1C57.7922 223.662 59.4662 223.808 61.2131 223.442C61.3587 223.442 61.2859 223.077 61.2131 223.077C59.4662 222.784 57.7922 223.004 56.1181 223.589C55.9725 223.662 56.0453 224.173 56.1181 224.1Z" fill="#E5C100"/>
        <path d="M57.2826 226.294C59.3207 226.367 61.4315 226.587 63.4695 226.294C63.5423 226.294 63.5423 226.002 63.4695 226.002C61.4315 225.782 59.3207 225.928 57.2826 226.002C57.2099 226.002 57.2099 226.294 57.2826 226.294Z" fill="#E5C100"/>
        <path d="M66.8176 223.004C68.7101 222.492 70.6753 222.565 72.495 221.834C72.5677 221.761 72.5677 221.395 72.4222 221.395C70.5297 221.614 68.5645 221.907 66.7448 222.492C66.6721 222.565 66.7448 223.004 66.8176 223.004Z" fill="#E5C100"/>
        <path d="M67.9822 226.294C69.9474 226.586 72.6405 225.855 74.169 224.612C74.2418 224.539 74.2418 224.173 74.0962 224.246C73.15 224.685 72.2766 225.124 71.2576 225.416C70.1658 225.709 69.074 225.709 67.9822 225.928C67.8366 226.001 67.8366 226.294 67.9822 226.294Z" fill="#E5C100"/>
        <path d="M79.7735 222.565C82.0299 222.638 84.2863 222.857 86.5427 222.419C86.6882 222.419 86.6882 221.907 86.5427 221.907C84.3591 221.468 82.0299 221.761 79.7735 221.761C79.4824 221.761 79.5552 222.565 79.7735 222.565Z" fill="#E5C100"/>
        <path d="M79.7735 226.44C82.1755 226.074 84.8686 225.636 87.1249 224.685C87.2705 224.612 87.2705 224.173 87.0522 224.173C84.723 224.393 81.8843 224.831 79.7008 225.855C79.628 225.928 79.628 226.44 79.7735 226.44Z" fill="#E5C100"/>
        <path d="M91.0554 222.565C92.7295 222.784 94.4763 222.931 96.1504 223.077C96.3688 223.077 96.296 222.565 96.1504 222.492C94.6219 221.614 92.7295 221.614 91.0554 221.834C90.7643 221.834 90.7643 222.492 91.0554 222.565Z" fill="#E5C100"/>
        <path d="M89.8908 227.537C92.5111 227.683 95.2042 227.903 97.7517 227.537C97.8973 227.537 97.8973 226.952 97.7517 226.952C95.1314 226.586 92.5111 226.806 89.8908 226.952C89.7453 227.025 89.7453 227.537 89.8908 227.537Z" fill="#E5C100"/>
        <path d="M102.847 223.15C104.084 223.004 105.249 222.858 106.486 222.784C107.578 222.711 108.597 222.858 109.616 222.492C109.761 222.419 109.761 221.907 109.616 221.834C107.578 221.103 104.812 221.615 102.774 222.346C102.556 222.419 102.628 223.223 102.847 223.15Z" fill="#E5C100"/>
        <path d="M103.429 228.049C105.685 227.683 107.942 227.903 110.198 227.537C110.344 227.537 110.344 227.098 110.198 227.025C108.015 226.66 105.54 227.025 103.429 227.61C103.283 227.683 103.283 228.049 103.429 228.049Z" fill="#E5C100"/>
        <path d="M112.964 223.589C114.929 222.931 117.113 223.077 119.151 223.004C119.296 223.004 119.296 222.492 119.151 222.419C117.186 221.468 114.711 221.907 112.891 223.004C112.818 223.077 112.818 223.662 112.964 223.589Z" fill="#E5C100"/>
        <path d="M113.546 226.879C115.584 226.586 117.841 226.513 119.733 225.709C119.806 225.709 119.806 225.343 119.733 225.343C117.695 225.489 115.512 225.782 113.546 226.513C113.401 226.586 113.401 226.879 113.546 226.879Z" fill="#E5C100"/>
        <path d="M123.664 222.711C124.246 222.711 124.901 222.785 125.483 222.858C126.138 222.931 126.939 223.223 127.594 223.15C127.812 223.15 127.74 222.638 127.667 222.565C126.721 221.542 124.901 221.761 123.664 221.761C123.3 221.688 123.3 222.711 123.664 222.711Z" fill="#E5C100"/>
        <path d="M122.499 228.049C123.882 228.195 125.629 228.561 127.012 228.195C127.23 228.122 127.23 227.537 127.012 227.464C125.629 227.025 123.882 227.391 122.499 227.537C122.353 227.61 122.353 228.049 122.499 228.049Z" fill="#E5C100"/>
        <path d="M44.3267 213.864C46.5103 215.034 48.4027 216.569 50.5135 217.812C50.5863 217.886 50.5863 217.593 50.5135 217.52C48.6939 215.838 46.5103 214.595 44.3267 213.572C44.2539 213.499 44.2539 213.864 44.3267 213.864Z" fill="#E5C100"/>
        <path d="M48.8395 212.329C50.6591 213.499 52.9155 214.449 55.0263 215.034C55.1719 215.107 55.1719 214.669 55.0991 214.595C53.2066 213.279 50.8775 212.914 48.9123 211.671C48.6939 211.598 48.6211 212.183 48.8395 212.329Z" fill="#E5C100"/>
        <path d="M54.444 211.013C55.1719 211.086 55.9725 211.598 56.6276 211.963C57.1371 212.256 57.6466 212.548 58.0833 212.841C58.5928 213.133 58.9567 213.572 59.4662 213.864C59.6118 213.937 59.539 213.572 59.539 213.499C58.884 212.548 57.7194 211.89 56.7004 211.451C56.0453 211.159 55.1719 210.72 54.444 210.72C54.3712 210.72 54.3712 211.013 54.444 211.013Z" fill="#E5C100"/>
        <path d="M60.0485 210.501C62.8144 211.744 65.3619 213.718 68.4917 213.937C68.6373 213.937 68.6373 213.572 68.4917 213.498C65.5803 212.621 62.8872 211.232 60.0485 210.135C59.9757 210.062 59.9757 210.428 60.0485 210.501Z" fill="#E5C100"/>
        <path d="M67.9094 210.574C70.2386 211.89 72.6405 213.279 75.2608 213.937C75.4064 213.937 75.4064 213.498 75.2608 213.425C72.9317 212.109 70.3841 211.086 67.9822 209.989C67.8366 209.989 67.7638 210.501 67.9094 210.574Z" fill="#E5C100"/>
        <path d="M76.3526 210.574C78.609 212.329 81.0837 213.426 83.704 214.449C83.8496 214.522 83.8496 214.157 83.704 214.084C81.3021 212.621 78.6818 211.671 76.4254 210.062C76.2798 209.989 76.2798 210.501 76.3526 210.574Z" fill="#E5C100"/>
        <path d="M84.8686 212.182C87.5617 212.841 89.7453 214.23 92.1472 215.546C92.22 215.619 92.22 215.253 92.22 215.253C90.182 213.352 87.5617 212.329 84.8686 211.817C84.723 211.817 84.723 212.182 84.8686 212.182Z" fill="#E5C100"/>
        <path d="M93.239 211.086C96.1504 212.402 98.2612 214.741 101.1 216.131C101.173 216.204 101.173 215.911 101.1 215.838C98.6251 214.01 96.0776 211.89 93.239 210.72C93.1662 210.647 93.1662 211.013 93.239 211.086Z" fill="#E5C100"/>
        <path d="M101.1 211.671C103.356 213.352 106.195 215.034 108.961 215.619C109.106 215.619 109.034 215.253 108.961 215.253C106.413 213.718 103.575 212.987 101.1 211.305C101.027 211.159 101.027 211.597 101.1 211.671Z" fill="#E5C100"/>
        <path d="M107.869 211.671C111.072 212.475 113.255 214.741 115.73 216.716C115.803 216.789 115.875 216.423 115.803 216.35C113.837 213.937 110.926 211.89 107.869 211.232C107.796 211.232 107.796 211.598 107.869 211.671Z" fill="#E5C100"/>
        <path d="M115.73 212.329C117.404 213.499 119.296 214.961 121.407 215.034C121.48 215.034 121.48 214.742 121.407 214.669C119.515 213.718 117.622 212.841 115.803 211.671C115.657 211.598 115.584 212.183 115.73 212.329Z" fill="#E5C100"/>
        <path d="M121.334 211.671C122.135 212.402 123.008 213.06 123.736 213.864C124.464 214.595 125.046 215.473 125.774 216.204C125.92 216.35 125.92 215.911 125.92 215.838C124.974 214.01 123.227 212.182 121.407 211.232C121.262 211.159 121.262 211.597 121.334 211.671Z" fill="#E5C100"/>
        <path d="M126.429 212.255C128.395 212.767 130.214 213.498 132.034 214.522C132.18 214.595 132.18 214.156 132.107 214.083C130.433 212.84 128.467 212.255 126.429 211.817C126.357 211.744 126.284 212.182 126.429 212.255Z" fill="#E5C100"/>
        <path d="M44.909 204.14C44.7634 204.14 44.6179 204.14 44.5451 203.994C44.6179 204.14 44.6907 204.286 44.7634 204.432C44.7634 204.432 44.7634 204.432 44.7634 204.359C44.7634 204.213 44.6179 203.701 44.3995 203.774C43.89 203.92 43.9628 205.31 44.4723 205.383C44.6907 205.456 44.7634 204.871 44.8362 204.798C44.7634 204.944 44.6907 205.09 44.6179 205.31C44.6907 205.236 44.909 205.236 44.9818 205.163C45.2729 205.163 45.2002 204.213 44.909 204.14Z" fill="#E5C100"/>
        <path d="M51.8965 204.14C51.8965 203.847 51.8965 203.555 51.8237 203.262C51.7509 202.897 51.6053 201.946 51.023 201.946C50.4408 201.946 50.368 202.897 50.2952 203.262C50.2224 203.555 50.2224 203.847 50.2224 204.14C50.2224 204.578 50.368 206.041 51.0958 205.968C51.8237 206.041 51.8965 204.578 51.8965 204.14Z" fill="#E5C100"/>
        <path d="M44.4723 205.383C44.6179 205.236 44.8362 205.017 44.9818 204.871C45.2002 204.651 45.2002 204.286 45.2002 203.993C45.2002 203.92 45.0546 203.262 44.7634 203.482C44.6179 203.628 44.3995 203.847 44.2539 203.993C44.0356 204.213 44.0356 204.578 44.0356 204.871C44.0356 204.944 44.2539 205.602 44.4723 205.383Z" fill="#E5C100"/>
        <path d="M59.6846 203.628C59.4662 203.262 59.3207 203.043 59.0295 202.824C58.7384 202.604 58.8112 202.239 58.5928 201.946C58.4472 201.727 58.2289 201.873 58.1561 202.093C57.7194 203.262 58.3017 204.432 59.4662 204.798C59.9029 204.871 59.8302 203.847 59.6846 203.628Z" fill="#E5C100"/>
        <path d="M70.8209 205.163C71.0392 205.017 71.112 204.724 71.1848 204.432C71.1848 204.286 71.1848 204.066 71.1848 203.92C71.1848 203.847 71.1848 203.774 71.1848 203.701C71.2576 204.14 71.112 203.993 71.4759 203.847C71.3304 203.481 71.112 203.116 70.9664 202.75C70.9664 203.116 70.9664 203.481 70.8936 203.847C70.9664 203.628 71.112 203.335 71.1848 203.116C70.7481 203.408 70.6753 203.189 70.2386 203.116C69.9474 203.043 69.8746 203.701 69.8018 203.847C69.8018 204.213 69.8018 204.651 70.0202 205.017C70.3841 205.529 71.0392 205.456 71.4031 205.09C71.9126 204.578 71.6943 203.628 71.6215 202.97C71.6215 202.823 71.4759 201.873 71.112 202.092C70.6753 202.385 70.4569 202.823 70.3841 203.335C70.3841 203.628 70.3841 203.847 70.4569 204.066C70.4569 204.14 70.5297 204.213 70.5297 204.286C70.6753 204.578 70.4569 204.286 70.5297 204.14C70.6025 204.359 70.5297 205.383 70.8209 205.163Z" fill="#E5C100"/>
        <path d="M80.9381 205.163C81.0837 205.017 81.3021 205.017 81.3749 204.725C81.4476 204.578 81.4476 204.505 81.4476 204.359C81.2293 205.163 81.5204 204.286 81.5204 204.14C81.5932 203.92 81.5932 203.628 81.5932 203.335C81.5204 203.628 81.4476 203.993 81.3749 204.286C81.3021 204.359 81.3021 204.359 81.3749 204.359C81.4476 204.286 81.8844 204.359 82.0299 204.359C81.8116 203.701 81.5932 203.116 81.3749 202.458C81.3749 202.166 81.4476 202.166 81.3021 202.385C81.2293 202.458 81.1565 202.531 81.0837 202.604C81.0109 202.677 81.1565 202.531 81.2293 202.531C81.4476 202.458 81.5932 203.043 81.5932 203.043C81.7388 203.409 81.5932 202.97 81.666 203.409C81.666 203.116 81.666 203.774 81.666 203.482C81.666 203.628 81.3749 204.432 81.2293 204.067C81.1565 203.774 81.0837 203.408 81.0109 203.116V203.189C81.0837 202.897 81.0837 202.531 81.1565 202.239C81.2293 202.019 81.3021 202.092 81.0837 202.166C80.9381 202.239 80.8653 202.312 80.7926 202.385C80.7198 202.458 80.5742 202.531 80.4286 202.531C80.2831 202.604 80.2103 202.897 80.1375 203.043C79.9919 203.335 80.0647 203.628 80.2103 203.92C80.3558 204.286 80.5742 204.286 80.9381 204.505C81.666 204.944 82.1027 204.067 82.1755 203.482C82.2483 202.824 82.1027 201.434 81.2293 201.361C80.7926 201.288 80.5014 202.166 80.5014 202.531C80.3558 203.335 80.3558 204.286 80.7198 205.017C81.0109 205.602 81.3749 205.821 81.8844 205.309C82.3939 204.798 82.685 203.993 82.685 203.262C82.685 202.897 82.685 201.361 82.0299 201.361C81.3749 201.434 80.9381 201.507 80.647 202.092C80.3558 202.75 80.2831 204.359 81.0109 204.725C80.9381 204.578 80.7926 204.359 80.7198 204.213C80.7926 204.359 80.7926 204.578 80.8653 204.725C80.8653 204.505 80.7926 204.359 80.7926 204.14C80.7926 204.213 80.7926 204.213 80.7926 204.286C80.647 204.505 80.7198 205.383 80.9381 205.163Z" fill="#E5C100"/>
        <path d="M89.3813 204.432C89.6725 204.505 89.8908 204.505 90.182 204.505C90.2547 204.505 90.4003 204.432 90.4731 204.432C90.6915 204.359 90.6187 204.505 90.5459 204.359C90.4731 204.14 90.4003 203.994 90.3275 203.774C90.4003 203.189 90.4003 203.043 90.3275 203.336C90.2547 203.482 90.2547 203.701 90.2547 203.847C90.2547 203.994 90.2547 204.871 90.6187 204.798C91.3465 204.725 91.201 203.262 90.9826 202.824C90.6187 202.239 89.8908 202.604 89.3813 202.751C88.7262 202.751 88.799 204.359 89.3813 204.432Z" fill="#E5C100"/>
        <path d="M103.575 205.968C103.575 205.895 103.575 205.895 103.575 205.821C103.502 205.895 103.502 205.968 103.429 206.041C103.502 205.968 103.575 205.821 103.575 205.748C103.575 205.529 103.647 205.529 103.575 205.748C103.647 205.602 103.647 205.456 103.647 205.31C103.72 204.798 103.575 204.213 103.283 203.847C102.92 203.335 102.192 203.701 101.828 203.994C101.464 204.286 101.391 204.944 101.464 205.383C101.464 205.602 101.609 205.895 101.828 206.041C101.973 206.114 102.192 205.968 102.264 205.895C102.41 205.821 102.701 205.675 102.847 205.748C103.065 205.821 103.138 206.114 103.356 206.114C103.283 206.041 103.211 205.968 103.138 205.895C103.138 205.968 103.138 205.968 103.211 206.041C103.283 206.26 103.502 206.26 103.575 205.968Z" fill="#E5C100"/>
        <path d="M111.29 206.26C111.29 206.26 111.581 206.26 111.508 206.26C111.217 206.333 111.363 205.017 111.29 205.529C111.508 205.236 111.727 204.944 111.945 204.651C111.363 204.505 110.708 204.578 110.125 204.578C110.344 205.017 110.489 205.383 110.708 205.821C110.708 205.529 110.635 205.236 110.635 204.944C110.489 205.456 110.344 205.894 110.198 206.406C110.416 206.406 110.562 206.333 110.78 206.26C110.926 206.26 110.999 206.187 111.144 206.114C111.29 206.041 111.363 206.114 111.144 206.041C111.144 205.31 111.144 204.651 111.072 203.92C110.708 204.213 110.489 204.944 110.562 205.383C110.635 205.675 111.072 206.26 111.435 206.041C111.872 205.748 111.945 204.14 111.363 203.92C111.072 203.774 110.562 204.067 110.198 204.067C109.834 204.067 109.761 204.651 109.761 204.944C109.761 205.236 109.689 205.529 109.689 205.821C109.689 206.114 109.761 207.064 110.271 207.064C110.78 207.064 111.435 207.211 111.945 207.064C112.527 206.918 112.527 205.968 112.454 205.456C112.382 204.944 111.945 203.555 111.217 204.286C110.853 204.651 110.999 205.529 111.144 205.968C111.144 206.041 111.144 206.187 111.29 206.26Z" fill="#E5C100"/>
        <path d="M120.97 204.066C120.97 204.213 120.97 204.432 120.97 204.578C120.898 204.725 120.898 204.871 120.825 205.017C120.97 204.871 121.626 205.309 121.771 205.456C121.771 204.944 121.771 204.505 121.771 203.993C121.626 204.286 121.48 204.651 121.189 204.871C120.898 205.163 120.461 205.236 120.097 205.456C120.315 205.748 120.461 206.114 120.679 206.406C120.679 205.529 120.679 204.578 120.388 203.774C120.315 203.555 120.17 203.628 120.097 203.774C119.733 204.578 119.806 205.529 119.806 206.406C119.806 206.699 119.951 207.576 120.388 207.357C121.407 206.918 121.771 206.26 122.208 205.309C122.353 204.944 122.353 204.213 121.989 203.92C121.626 203.628 120.97 203.335 120.534 203.701C120.097 204.066 120.243 205.017 120.607 205.383C121.116 205.748 121.189 204.359 120.97 204.066Z" fill="#E5C100"/>
        <path d="M128.176 206.406C128.54 206.333 128.686 206.333 128.904 206.187C128.759 205.602 128.613 205.09 128.395 204.505C128.249 204.798 128.104 205.09 127.885 205.456C127.885 205.529 127.812 206.479 128.176 206.406C128.395 206.333 128.613 206.26 128.831 206.187C129.778 205.894 129.05 203.701 128.54 204.286C128.249 204.578 128.176 205.017 127.958 205.382C127.885 205.529 127.812 206.479 128.176 206.406Z" fill="#E5C100"/>
        <path d="M37.7032 202.604C39.2317 199.534 41.0514 196.609 42.3615 193.392C42.7254 192.514 42.7982 192.295 43.4533 193.099C44.0356 193.904 44.6179 194.635 45.2729 195.366C46.292 196.536 47.4565 197.998 48.8395 198.729C48.985 198.802 48.985 198.291 48.9122 198.217C46.8014 195.878 44.6179 193.831 42.7254 191.345C42.6526 191.198 42.5071 191.418 42.5071 191.491C41.3425 195.366 39.3045 198.729 37.4848 202.239C37.4848 202.385 37.5576 202.824 37.7032 202.604Z" fill="#E5C100"/>
        <path d="M49.4218 199.095C50.004 197.706 50.8047 196.463 51.6781 195.293C51.9693 194.927 53.7161 191.93 54.0073 191.93C54.7351 192.003 55.7541 194.196 56.1909 194.781C57.1371 196.024 58.3017 197.121 59.3935 198.291C59.6846 198.583 59.7574 197.706 59.6118 197.486C57.7194 195.585 55.8997 193.684 54.5168 191.418L54.444 191.345C53.2794 191.491 52.9155 192.953 52.3332 193.904C51.2414 195.512 50.1496 197.048 49.349 198.876C49.349 199.022 49.349 199.241 49.4218 199.095Z" fill="#E5C100"/>
        <path d="M60.7036 198.071C61.941 195.951 63.615 194.123 65.3619 192.368C65.9442 191.783 67.6183 194.927 67.9094 195.293C68.5645 196.316 69.2924 197.34 70.1658 198.217C70.3841 198.51 70.5297 197.632 70.3114 197.486C68.5645 195.658 67.2543 193.392 65.7986 191.345C65.7986 191.345 65.7258 191.271 65.653 191.345C63.6878 193.319 61.8682 195.293 60.558 197.706C60.558 197.852 60.6308 198.217 60.7036 198.071Z" fill="#E5C100"/>
        <path d="M71.3304 197.998C72.8589 195.293 74.8241 193.538 77.0805 191.417C77.4444 191.125 79.0457 195 79.264 195.439C79.9191 196.755 80.7925 197.925 81.8116 199.022C82.1755 199.387 82.3211 198.144 82.1027 197.852C79.9919 195.658 78.7545 192.953 77.59 190.174C77.59 190.101 77.4444 189.955 77.3716 190.028C75.2608 192.149 71.4759 194.488 71.1848 197.779C71.2576 197.852 71.3304 198.071 71.3304 197.998Z" fill="#E5C100"/>
        <path d="M82.6122 198.51C83.6312 197.194 84.5046 195.878 85.6692 194.635C86.0332 194.269 89.818 191.271 89.818 191.271C90.2548 193.684 90.9098 197.413 93.239 198.729C93.4573 198.875 93.3845 198.144 93.3118 198.071C92.5839 196.901 91.7833 195.878 91.201 194.562C90.6187 193.245 90.3275 191.783 90.0364 190.321C90.0364 190.248 89.9636 189.882 89.818 190.028C87.1977 192.149 83.4129 194.854 82.5394 198.364C82.5394 198.437 82.5394 198.583 82.6122 198.51Z" fill="#E5C100"/>
        <path d="M93.3118 198.144C93.9669 196.901 94.7675 195.731 95.5681 194.634C96.0049 194.05 96.4416 193.538 96.8783 193.026C97.8973 191.856 98.2612 192.807 98.7707 193.465C100.445 195.585 101.537 197.998 103.138 200.118C103.429 200.484 103.575 199.314 103.356 199.021C101.537 196.389 99.9353 193.538 97.6789 191.271C97.6062 191.198 97.5334 191.198 97.4606 191.271C95.6409 193.172 94.1852 195.293 92.9478 197.705C93.0934 197.778 93.239 198.29 93.3118 198.144Z" fill="#E5C100"/>
        <path d="M101.755 201.507C105.613 199.606 107.942 195.512 110.271 192.075C110.198 191.929 110.053 191.783 109.98 191.637C110.053 195.219 110.999 198.583 113.401 201.288C113.765 201.727 113.983 200.338 113.692 200.045C111.508 197.705 110.489 194.781 110.416 191.637C110.416 191.564 110.271 190.906 110.125 191.198C107.796 194.781 105.467 198.729 101.755 200.996C101.537 201.142 101.609 201.58 101.755 201.507Z" fill="#E5C100"/>
        <path d="M114.129 200.337C115.075 198.436 116.312 196.901 117.695 195.366C120.17 192.587 119.733 193.026 119.879 195.439C120.024 197.486 121.043 199.241 122.353 200.703C122.499 200.849 122.645 200.776 122.645 200.63C122.936 199.972 128.467 191.271 129.414 192.88C130.651 195.073 131.233 197.632 133.053 199.46C133.344 199.753 133.417 198.802 133.271 198.656C132.034 196.17 130.797 193.538 129.341 191.125C129.268 191.052 129.195 190.979 129.123 191.052C127.521 192.368 125.993 193.757 124.683 195.366C124.173 195.951 123.591 196.828 123.227 197.486C121.262 201.434 120.024 194.854 120.388 192.368C120.388 192.222 120.315 191.564 120.097 191.856C117.695 194.342 115.366 196.828 113.91 199.972C113.91 200.118 114.056 200.557 114.129 200.337Z" fill="#E5C100"/>
        <path d="M36.3203 181.035C36.6114 183.082 36.6842 185.203 36.9025 187.25C36.9025 187.469 37.1209 187.469 37.1209 187.25C37.3393 185.13 36.9025 182.936 36.6114 180.889C36.5386 180.377 36.3203 180.743 36.3203 181.035Z" fill="#E5C100"/>
        <path d="M40.2507 179.792C40.2507 182.205 40.1051 184.691 40.2507 187.104C40.2507 187.323 40.3963 187.396 40.4691 187.177C40.6874 184.691 40.5419 182.205 40.4691 179.792C40.5419 179.5 40.2507 179.5 40.2507 179.792Z" fill="#E5C100"/>
        <path d="M43.0894 181.108C43.5989 182.936 43.4533 184.764 43.6717 186.665C43.6717 186.884 43.89 186.884 43.89 186.665C44.1084 184.691 43.9628 182.644 43.3077 180.743C43.1622 180.304 43.0166 180.889 43.0894 181.108Z" fill="#E5C100"/>
        <path d="M45.928 181.108C46.3647 183.082 46.3647 185.13 46.5103 187.177C46.5103 187.396 46.7287 187.542 46.7287 187.25C46.8742 185.057 46.7287 182.936 46.1464 180.816C46.0736 180.377 45.8552 180.889 45.928 181.108Z" fill="#E5C100"/>
        <path d="M48.9122 180.45C48.9122 180.377 48.9122 180.377 48.9122 180.304C48.9122 180.085 48.6939 179.792 48.6939 180.158C48.5483 182.059 48.4755 184.179 48.6939 186.08C48.6939 186.3 48.8395 186.3 48.9122 186.08C49.2034 184.179 49.0578 182.132 48.9122 180.231C48.9122 179.938 48.6939 179.938 48.6939 180.231C48.6939 180.304 48.6939 180.304 48.6939 180.377C48.7667 180.597 48.9122 180.743 48.9122 180.45Z" fill="#E5C100"/>
        <path d="M52.6243 180.962C52.6243 182.497 52.5516 184.033 52.6971 185.568C52.6971 185.787 52.9155 185.787 52.9155 185.568C53.0611 184.033 52.9883 182.497 52.9883 180.962C52.9155 180.523 52.6243 180.523 52.6243 180.962Z" fill="#E5C100"/>
        <path d="M56.0453 179.28C56.0453 181.327 55.9725 183.448 56.1181 185.495C56.1181 185.641 56.2637 185.788 56.2637 185.568C56.4092 183.448 56.3364 181.401 56.3364 179.28C56.2636 178.842 56.0453 178.915 56.0453 179.28Z" fill="#E5C100"/>
        <path d="M59.3934 179.792C59.3934 181.693 59.3207 183.594 59.4662 185.422C59.4662 185.642 59.6118 185.715 59.6846 185.495C59.8302 183.594 59.7574 181.693 59.7574 179.792C59.6846 179.427 59.3934 179.427 59.3934 179.792Z" fill="#E5C100"/>
        <path d="M63.9062 180.962C63.9062 183.229 63.8334 185.495 63.979 187.762C63.979 187.908 64.1245 187.981 64.1245 187.835C64.1973 185.568 64.1973 183.302 64.1973 181.035C64.1245 180.596 63.9062 180.596 63.9062 180.962Z" fill="#E5C100"/>
        <path d="M70.6753 180.742C70.1658 182.351 69.8747 184.545 70.6753 186.153C70.7481 186.299 70.8209 186.007 70.8209 185.934C70.6753 185.203 70.5297 184.545 70.4569 183.813C70.3842 182.863 70.6025 181.912 70.8209 181.035C70.8937 180.962 70.7481 180.523 70.6753 180.742Z" fill="#E5C100"/>
        <path d="M74.6057 180.962C74.6057 182.717 74.6057 184.545 75.2608 186.153C75.3336 186.373 75.4064 186.007 75.4064 185.934C75.0425 184.252 74.8969 182.644 74.8969 180.962C74.8241 180.597 74.6057 180.597 74.6057 180.962Z" fill="#E5C100"/>
        <path d="M79.628 180.377C79.628 182.644 79.4824 184.984 79.7008 187.25C79.7008 187.469 79.8463 187.469 79.9191 187.25C80.1375 184.984 79.9919 182.644 79.9919 180.377C79.9191 180.012 79.628 180.012 79.628 180.377Z" fill="#E5C100"/>
        <path d="M83.5584 181.474C83.5584 183.302 83.2673 185.422 83.6312 187.177C83.6312 187.323 83.8496 187.543 83.8496 187.25C84.2135 185.422 83.9224 183.302 83.9224 181.474C83.8496 181.035 83.5584 181.035 83.5584 181.474Z" fill="#E5C100"/>
        <path d="M86.9794 180.962C87.0522 181.985 87.1249 183.009 87.2705 184.033C87.4161 185.056 87.3433 187.25 88.1439 187.981C88.2895 188.127 88.3623 187.835 88.3623 187.762C88.2895 186.446 87.9256 185.056 87.7072 183.74C87.5617 182.79 87.4161 181.839 87.2705 180.889C87.1249 180.523 86.9794 180.669 86.9794 180.962Z" fill="#E5C100"/>
        <path d="M92.5111 180.377C92.5111 182.424 92.3655 184.618 92.5839 186.665C92.5839 186.884 92.7295 186.884 92.8023 186.665C93.0206 184.618 92.8751 182.424 92.8751 180.377C92.8751 179.865 92.5111 179.938 92.5111 180.377Z" fill="#E5C100"/>
        <path d="M95.3498 180.962C95.3498 183.155 95.0586 185.861 96.0049 187.908C96.1504 188.2 96.2232 187.762 96.2232 187.615C95.8593 185.422 95.7137 183.155 95.7137 180.889C95.7137 180.45 95.3498 180.45 95.3498 180.962Z" fill="#E5C100"/>
        <path d="M98.7707 181.693C99.0619 182.79 99.353 183.813 99.5714 184.91C99.6442 185.495 99.7169 186.007 99.7897 186.592C99.7897 186.884 99.7897 187.177 100.008 187.396C100.008 187.396 100.081 187.469 100.154 187.396C100.736 186.884 100.226 185.13 100.154 184.545C100.008 183.448 99.7169 182.059 99.0619 181.181C98.7707 180.962 98.7707 181.62 98.7707 181.693Z" fill="#E5C100"/>
        <path d="M102.701 182.059C102.701 184.471 102.41 187.03 102.774 189.443C102.774 189.663 102.92 189.663 102.992 189.443C103.356 187.03 103.065 184.471 103.065 182.059C102.992 181.62 102.701 181.62 102.701 182.059Z" fill="#E5C100"/>
        <path d="M105.54 181.474C105.467 183.886 105.103 186.592 105.613 188.931C105.613 189.078 105.758 189.078 105.831 188.931C106.049 187.908 105.904 186.884 105.904 185.861C105.904 184.398 105.904 182.936 105.831 181.401C105.758 181.108 105.54 181.181 105.54 181.474Z" fill="#E5C100"/>
        <path d="M109.47 182.644C109.397 185.495 109.179 188.273 108.961 191.052C108.961 191.125 109.034 191.564 109.179 191.344C109.761 189.955 109.689 188.273 109.761 186.811C109.834 185.422 109.834 184.033 109.761 182.644C109.689 182.205 109.47 182.278 109.47 182.644Z" fill="#E5C100"/>
        <path d="M113.546 183.96C113.983 183.521 114.201 182.936 114.711 182.498C114.638 182.278 114.565 182.132 114.42 181.913C114.201 184.179 114.056 186.738 114.493 188.932C114.565 189.151 114.711 189.37 114.784 189.005C115.22 186.738 115.075 184.179 114.856 181.913C114.856 181.766 114.711 181.401 114.565 181.62C114.201 182.205 113.91 182.936 113.473 183.521C113.401 183.667 113.401 184.106 113.546 183.96Z" fill="#E5C100"/>
        <path d="M118.132 182.717C118.059 182.644 117.986 182.571 117.841 182.498C117.841 182.717 117.768 182.717 117.913 182.571C117.768 182.717 117.768 182.863 117.768 183.083C117.768 183.741 117.768 184.399 117.768 185.13C117.841 186.007 117.695 188.054 118.496 188.639C118.641 188.786 118.641 188.274 118.641 188.201C118.423 187.031 118.35 185.788 118.277 184.618C118.277 184.106 118.205 183.594 118.132 183.083C118.132 182.936 118.132 182.79 117.986 182.644C118.132 182.79 118.059 182.644 117.986 182.498C117.986 182.132 117.695 182.278 117.695 182.571C117.695 182.571 117.695 182.571 117.695 182.644C117.913 182.936 118.132 183.083 118.132 182.717Z" fill="#E5C100"/>
        <path d="M123.227 183.302C123.227 183.229 123.227 183.229 123.227 183.156C123.227 182.863 122.936 182.424 122.936 182.936C122.863 183.741 122.79 184.764 122.79 185.642C122.79 186.885 122.499 188.493 122.936 189.663C123.008 189.809 123.081 189.736 123.154 189.663C123.591 188.639 123.3 187.031 123.3 185.934C123.3 185.203 123.3 184.545 123.3 183.814C123.3 183.375 123.227 183.229 123.227 183.083C123.227 182.644 122.863 182.644 122.936 183.083C122.936 183.156 122.936 183.156 122.936 183.229C122.936 183.521 123.227 183.741 123.227 183.302Z" fill="#E5C100"/>
        <path d="M126.211 182.644C126.211 184.911 126.066 187.25 126.357 189.517C126.357 189.809 126.575 189.736 126.575 189.517C126.866 187.25 126.721 184.911 126.721 182.644C126.648 181.986 126.211 181.986 126.211 182.644Z" fill="#E5C100"/>
        <path d="M129.705 183.448C130.287 185.057 129.996 186.738 130.287 188.42C130.287 188.566 130.505 188.786 130.505 188.493C130.797 186.812 130.797 184.472 129.923 182.936C129.705 182.498 129.632 183.229 129.705 183.448Z" fill="#E5C100"/>
        <path d="M30.8613 175.697C32.5354 174.235 34.355 173.065 35.9563 171.53C36.3203 171.164 36.0291 169.775 35.738 170.067C34.0639 171.749 32.317 173.285 30.7157 174.966C30.6429 175.112 30.7157 175.844 30.8613 175.697Z" fill="#E5C100"/>
        <path d="M37.1209 175.186C37.8488 174.236 38.5766 173.285 39.3045 172.408C40.1051 171.457 41.1241 170.58 41.6336 169.41C41.7064 169.264 41.7064 168.679 41.4881 168.679C40.5418 168.825 39.814 170.141 39.2317 170.872C38.3583 171.969 37.5576 173.139 36.9025 174.382C36.757 174.455 36.8298 175.478 37.1209 175.186Z" fill="#E5C100"/>
        <path d="M40.9786 174.089C43.3077 173.723 45.7097 171.676 46.2192 169.337C46.2192 169.263 46.2192 168.605 46.0008 168.752C45.6369 168.971 45.3457 169.483 45.1274 169.848C44.7634 170.433 44.3267 170.872 43.89 171.384C43.0894 172.188 41.9976 172.773 40.9786 173.212C40.6874 173.212 40.6874 174.089 40.9786 174.089Z" fill="#E5C100"/>
        <path d="M44.909 174.967C46.5103 174.455 48.0388 172.92 48.9122 171.603C48.985 171.53 48.985 171.018 48.8395 171.092C47.3837 171.969 46.2919 173.504 44.909 174.528C44.7634 174.601 44.7634 174.967 44.909 174.967Z" fill="#E5C100"/>
        <path d="M50.004 176.136C51.9693 173.431 54.7351 171.896 57.2827 169.921C57.3554 169.848 57.3554 169.41 57.2099 169.483C54.2984 170.726 51.4598 172.846 49.8585 175.698C49.8585 175.698 49.8585 176.283 50.004 176.136Z" fill="#E5C100"/>
        <path d="M55.6814 175.551C56.482 174.601 57.2827 173.65 58.1561 172.7C59.2479 171.457 60.6308 170.433 61.8682 169.336C61.941 169.263 62.0138 168.678 61.7954 168.751C59.0295 169.775 57.1371 172.627 55.6086 174.966C55.3902 175.186 55.463 175.771 55.6814 175.551Z" fill="#E5C100"/>
        <path d="M59.6118 175.624C62.0137 173.431 64.3429 171.31 66.8904 169.336C67.036 169.263 67.036 168.678 66.8176 168.751C63.9062 170.141 61.6498 172.553 59.4662 174.966C59.3207 175.113 59.3934 175.771 59.6118 175.624Z" fill="#E5C100"/>
        <path d="M67.4727 174.381C69.0012 171.822 71.4759 170.579 73.6595 168.752C73.7323 168.678 73.7323 168.24 73.5867 168.313C70.9664 169.19 68.4917 171.53 67.3271 174.016C67.2543 174.089 67.3271 174.528 67.4727 174.381Z" fill="#E5C100"/>
        <path d="M73.0772 173.943C75.2608 172.335 77.4444 170.653 79.2641 168.752C79.3368 168.679 79.3368 168.167 79.1913 168.24C76.8621 169.41 75.0425 171.603 73.0044 173.212C72.7861 173.358 72.8589 174.089 73.0772 173.943Z" fill="#E5C100"/>
        <path d="M77.0077 174.967C77.8811 174.089 78.8273 173.212 79.7736 172.335C80.7198 171.457 81.8116 170.726 82.685 169.775C82.7578 169.702 82.7578 169.264 82.6122 169.337C80.4286 170.36 78.609 172.7 76.9349 174.382C76.7893 174.601 76.8621 175.113 77.0077 174.967Z" fill="#E5C100"/>
        <path d="M80.9381 176.136C83.1945 174.455 85.0869 172.334 87.1249 170.433C87.1977 170.36 87.1977 169.995 87.0522 170.068C84.6502 171.53 82.9761 173.87 80.8653 175.625C80.7198 175.698 80.7926 176.209 80.9381 176.136Z" fill="#E5C100"/>
        <path d="M86.0332 175.478C87.9256 173.212 90.2548 171.384 92.7295 169.848C92.8023 169.775 92.8023 169.336 92.6567 169.41C89.9636 170.579 87.6345 172.7 85.8876 175.113C85.8148 175.186 85.8876 175.624 86.0332 175.478Z" fill="#E5C100"/>
        <path d="M91.6377 175.405C93.0934 173.358 94.6947 171.822 96.6599 170.433C96.7327 170.36 96.7327 169.921 96.5871 169.995C94.3308 170.799 92.7295 173.212 91.4921 175.186C91.4921 175.259 91.5649 175.551 91.6377 175.405Z" fill="#E5C100"/>
        <path d="M95.5681 174.967C97.2422 173.358 99.2074 172.188 101.173 170.945C101.245 170.872 101.245 170.58 101.1 170.58C98.9163 171.384 97.0966 172.846 95.4953 174.455C95.3498 174.601 95.4226 175.113 95.5681 174.967Z" fill="#E5C100"/>
        <path d="M99.4986 175.478C102.337 174.381 105.103 172.553 107.359 170.433C107.432 170.36 107.432 169.848 107.287 169.994C104.594 171.603 102.337 173.796 99.4258 175.112C99.353 175.186 99.353 175.478 99.4986 175.478Z" fill="#E5C100"/>
        <path d="M106.268 175.625C107.578 173.723 109.47 172.261 110.708 170.433C110.78 170.36 110.78 169.995 110.635 170.068C108.815 171.164 107.214 173.285 106.049 175.04C106.049 175.113 106.122 175.844 106.268 175.625Z" fill="#E5C100"/>
        <path d="M110.708 175.259C110.635 175.332 110.708 175.259 110.708 175.259C110.635 175.332 110.635 175.405 110.635 175.405C110.708 175.405 110.853 175.259 110.926 175.332C110.926 175.332 110.926 175.332 110.999 175.332C112.6 174.089 114.129 172.7 115.803 171.603C115.875 171.53 115.875 171.091 115.73 171.164C114.565 171.603 113.546 172.627 112.6 173.431C112.091 173.87 111.581 174.308 111.072 174.747C110.999 174.893 110.708 175.332 110.708 175.259C110.708 175.332 110.708 175.259 110.708 175.259Z" fill="#E5C100"/>
        <path d="M114.129 178.257C115.366 175.478 117.841 173.796 119.733 171.53C119.806 171.457 119.733 171.018 119.66 171.091C117.331 172.919 115.148 175.186 113.983 177.964C113.983 178.037 114.056 178.476 114.129 178.257Z" fill="#E5C100"/>
        <path d="M119.151 177.16C120.97 175.405 122.936 173.796 124.755 172.042C124.828 171.969 124.828 171.603 124.683 171.676C122.499 173.065 120.752 174.893 119.005 176.794C119.005 176.867 119.078 177.233 119.151 177.16Z" fill="#E5C100"/>
        <path d="M123.081 178.841C124.974 177.014 127.376 175.478 128.759 173.138C128.831 173.065 128.759 172.7 128.686 172.773C126.793 174.601 124.901 176.502 123.008 178.476C122.936 178.549 123.008 178.915 123.081 178.841Z" fill="#E5C100"/>
        <path d="M127.012 179.427C130.505 178.33 133.199 175.771 136.619 174.382C136.692 174.308 136.692 173.943 136.619 174.016C132.98 174.82 130.433 177.745 127.012 179.134C126.939 179.134 126.939 179.427 127.012 179.427Z" fill="#E5C100"/>
        <path d="M56.1181 137.166C55.9725 137.093 55.8269 136.946 55.6814 136.873C55.6086 136.727 55.5358 136.654 55.3902 136.654C54.2256 136.581 53.2794 137.677 52.6243 138.555C51.8237 139.652 51.1686 140.895 50.8047 142.211C50.8047 142.284 50.8775 143.381 51.0958 143.088C51.9693 142.211 52.4788 141.114 53.2794 140.163C53.7161 139.652 54.2256 139.213 54.8079 138.774C55.0263 138.628 55.2446 138.482 55.463 138.336C55.7541 138.116 55.5358 137.751 56.0453 137.604C56.3364 137.677 56.2636 137.239 56.1181 137.166Z" fill="#E5C100"/>
        <path d="M49.349 146.232C47.0926 147.329 45.7825 150.181 44.7634 152.374C44.6907 152.447 44.6907 153.178 44.9818 153.032C47.0198 151.424 47.6021 148.499 49.4945 146.671C49.4945 146.598 49.5673 146.159 49.349 146.232Z" fill="#E5C100"/>
        <path d="M41.9976 156.103C40.6146 157.346 39.4501 159.1 39.0861 160.928C39.0861 161.001 39.1589 161.733 39.3045 161.44C40.2507 159.905 40.9786 158.369 42.1431 157.053C42.3615 156.907 42.2159 155.956 41.9976 156.103Z" fill="#E5C100"/>
        <path d="M36.3931 165.242C33.8455 166.924 32.1715 169.995 31.8075 172.992C31.8075 173.066 31.9531 173.577 32.0259 173.285C33.0449 170.506 34.355 168.24 36.4658 166.193C36.757 165.973 36.6842 165.023 36.3931 165.242Z" fill="#E5C100"/>
        <path d="M103.866 143.015C105.321 145.135 106.777 147.84 108.961 149.23C109.252 149.376 109.179 148.498 109.106 148.352C107.578 146.159 105.758 144.111 104.084 142.064C103.793 141.699 103.72 142.795 103.866 143.015Z" fill="#E5C100"/>
        <path d="M113.983 150.619C115.148 152.666 116.167 154.787 117.331 156.834C117.477 157.126 117.55 156.688 117.55 156.542C117.331 154.129 115.657 151.862 114.129 150.18C113.983 150.034 113.91 150.546 113.983 150.619Z" fill="#E5C100"/>
        <path d="M120.607 158.442C121.116 160.855 122.135 163.341 123.591 165.388C123.736 165.607 123.809 165.023 123.736 164.876C122.863 162.61 121.844 160.416 121.043 158.077C120.825 157.565 120.534 158.15 120.607 158.442Z" fill="#E5C100"/>
        <path d="M126.357 167.436C127.958 168.679 128.613 170.141 129.05 172.115C129.123 172.335 129.341 172.335 129.341 172.115C129.778 169.702 128.467 167.363 126.429 166.193C126.138 165.973 126.138 167.216 126.357 167.436Z" fill="#E5C100"/>
        <path d="M97.0238 164.584C96.8055 164.803 96.7327 165.169 96.7327 165.534C96.7327 165.681 96.7327 165.9 96.8055 166.046C96.8055 166.119 96.8055 166.193 96.8783 166.266C96.7327 165.827 96.9511 165.9 96.5143 166.119C96.6599 166.339 96.8055 166.558 96.9511 166.851C96.8783 165.827 96.0048 164.438 94.913 164.365C94.913 164.876 94.913 165.461 94.9858 165.973C95.7865 165.973 96.6599 165.973 97.4606 165.973C97.9701 165.973 97.9701 164.292 97.3878 164.292C97.315 164.292 97.2422 164.292 97.1694 164.292C96.8783 164.292 96.8783 164.73 96.8055 164.95C96.8055 164.73 96.8055 164.95 96.6599 165.023C96.5871 165.169 96.4416 165.242 96.296 165.388C96.1504 165.461 96.0776 165.169 95.9321 165.242C95.7865 165.315 95.7865 165.534 95.7865 165.681C95.7137 166.119 95.8593 167.216 96.5871 166.924C97.1694 166.704 97.5333 165.973 97.5333 165.315C97.3878 165.534 97.315 165.754 97.1694 165.973C97.2422 165.973 97.315 165.973 97.3878 165.973C97.8973 165.973 97.8973 164.292 97.315 164.292C96.5143 164.292 95.6409 164.292 94.8403 164.292C94.3308 164.292 94.4035 165.9 94.913 165.9C95.2042 165.9 95.4953 166.119 95.6409 166.339C95.7865 166.485 95.932 166.631 96.0048 166.704C96.0776 166.777 96.0776 166.851 96.1504 166.924C96.2232 166.997 96.2232 167.216 96.2232 166.997C96.2232 167.143 96.3688 167.655 96.6599 167.509C97.0238 167.289 97.315 166.924 97.3878 166.485C97.3878 166.266 97.3878 166.046 97.3878 165.827C97.3878 165.754 97.3878 165.681 97.315 165.534C97.2422 165.169 97.3878 165.534 97.315 165.608C97.5333 165.388 97.3878 164.145 97.0238 164.584Z" fill="#E5C100"/>
        <path d="M108.306 164.803C108.378 164.657 108.378 164.73 108.378 164.73C108.524 164.949 108.524 165.169 108.451 165.461C108.524 164.949 108.233 165.754 108.378 165.681C108.67 165.534 109.325 165.827 109.616 165.9C109.47 165.607 109.398 165.242 109.252 164.949C109.325 164.511 109.47 164.584 109.179 164.657C109.034 164.73 108.961 164.73 108.815 164.73C108.524 164.803 108.233 164.803 107.942 164.803C107.723 164.803 107.287 164.73 107.141 164.876C106.85 165.169 106.85 165.607 106.923 165.973C106.923 166.119 107.141 166.85 107.432 166.558C108.015 165.973 108.67 165.315 109.252 164.73C109.179 164.145 109.106 163.633 109.034 163.048L108.961 163.121C108.597 163.487 108.67 164.291 108.888 164.73C108.961 164.876 109.034 165.023 109.106 165.169C108.888 164.364 109.397 164.218 109.106 164.438C108.961 164.511 108.742 164.584 108.597 164.657C108.087 164.876 108.16 166.485 108.742 166.265C109.106 166.119 109.47 166.119 109.689 165.681C110.053 164.876 109.689 163.926 109.252 163.195C109.252 163.706 109.252 164.291 109.179 164.803L109.252 164.73C109.543 164.438 109.543 163.999 109.47 163.633C109.47 163.487 109.252 162.756 108.961 163.048C108.378 163.633 107.723 164.291 107.141 164.876C107.214 165.461 107.287 165.973 107.359 166.558C107.432 166.485 107.432 166.412 107.505 166.412C107.432 166.485 107.359 166.485 107.287 166.558C108.233 166.558 109.689 166.558 109.834 165.315C109.834 165.023 109.834 164.438 109.47 164.364C109.034 164.291 108.524 164.145 108.087 164.291C107.651 164.438 107.723 165.315 107.869 165.607C107.942 165.827 108.16 165.9 108.306 165.754C108.597 165.607 108.524 165.096 108.451 164.803C108.524 164.73 108.451 164.657 108.306 164.803Z" fill="#E5C100"/>
        <path d="M48.8395 154.129C48.7667 153.982 48.7667 153.836 48.6939 153.69C48.5483 153.982 48.4755 154.202 48.4027 154.494C48.6939 154.494 48.985 154.64 49.2034 154.64C49.7129 154.714 50.2224 154.933 50.7319 155.006C51.6053 155.152 52.4788 155.152 53.3522 155.299C53.6434 155.372 53.4978 154.567 53.3522 154.494C52.4788 153.836 51.6053 153.324 50.6591 152.959C50.0768 152.739 48.8395 152.447 48.2572 152.886C47.966 153.105 47.8932 154.567 48.4027 154.421C48.5483 154.421 48.6939 154.421 48.8395 154.567C48.985 154.714 48.985 154.275 48.8395 154.129Z" fill="#E5C100"/>
        <path d="M56.7004 155.298C56.6276 155.298 56.5548 155.225 56.482 155.225C56.3364 155.225 56.4092 155.152 56.4092 155.298C56.2636 155.006 56.1181 155.518 56.1909 155.664C56.1909 155.81 56.2636 156.029 56.482 156.103C57.1371 156.249 57.7194 156.249 58.3744 156.249C58.9567 156.176 59.539 156.029 60.1213 155.883C60.3397 155.81 60.3397 155.225 60.1213 155.152C59.539 155.006 58.9567 154.86 58.3744 154.786C57.7194 154.713 57.1371 154.786 56.482 154.933C56.3364 154.933 56.2637 155.225 56.2637 155.371C56.1909 155.518 56.4092 156.029 56.482 155.737C56.482 155.81 56.3364 155.81 56.482 155.81C56.5548 155.81 56.7004 155.737 56.7732 155.737C56.8459 155.737 56.8459 155.298 56.7004 155.298Z" fill="#E5C100"/>
        <path d="M66.2353 155.737C66.1626 155.737 66.0898 155.737 66.017 155.664C65.7986 155.591 65.7986 156.395 66.017 156.468C66.2353 156.541 66.1626 156.615 66.4537 156.688C66.8904 156.761 67.2544 156.834 67.6911 156.834C68.5645 156.834 69.5107 156.98 70.2386 156.541C70.4569 156.395 70.3842 155.81 70.2386 155.664C69.5107 155.225 68.5645 155.372 67.6911 155.372C67.2544 155.372 66.8904 155.445 66.4537 155.518C66.2353 155.518 66.2353 155.664 66.0898 155.737C65.7986 155.81 65.8714 156.541 66.0898 156.541C66.1626 156.541 66.2353 156.541 66.3081 156.468C66.5265 156.395 66.4537 155.737 66.2353 155.737Z" fill="#E5C100"/>
        <path d="M78.0995 158.15C78.5362 158.004 78.9729 158.004 79.4096 157.857C80.2831 157.565 81.1565 157.346 82.0299 156.907C82.1755 156.834 82.1755 156.395 82.0299 156.322C80.5742 155.737 79.1913 156.468 78.0267 157.346C77.8811 157.492 77.8811 158.223 78.0995 158.15Z" fill="#E5C100"/>
        <path d="M88.7262 157.93C88.7262 158.223 88.7262 158.515 88.7262 158.735C88.8718 158.662 89.2357 158.735 89.4541 158.808C89.9636 158.881 90.4003 158.735 90.9098 158.735C91.9288 158.662 92.9478 158.662 93.8213 158.15C93.9668 158.077 93.9668 157.492 93.8213 157.419C92.8023 156.907 91.7105 157.199 90.6187 157.345C90.0364 157.419 89.0902 157.492 88.5807 157.93C88.4351 158.077 88.3623 158.735 88.6535 158.808H88.7262C89.0174 158.735 89.0174 158.004 88.7262 157.93Z" fill="#E5C100"/>
        <path d="M100.663 158.442C100.736 157.93 101.755 158.15 102.119 158.223C102.992 158.296 103.72 158.296 104.521 158.003C104.666 157.93 104.666 157.565 104.521 157.492C103.429 157.126 100.372 156.249 100.445 158.296C100.518 158.442 100.59 158.661 100.663 158.442Z" fill="#E5C100"/>
        <path d="M107.796 157.711C107.796 158.077 107.869 158.442 108.233 158.589C108.742 158.808 109.761 158.954 110.198 158.589C110.344 158.516 110.344 158.077 110.198 158.004C109.834 157.784 109.397 157.858 109.034 157.858C108.888 157.858 108.087 157.784 108.015 157.638C107.942 157.419 107.796 157.565 107.796 157.711Z" fill="#E5C100"/>
        <path d="M54.0073 149.888C54.0801 147.475 54.2256 145.062 54.5168 142.649C54.5168 142.503 54.3712 142.138 54.2984 142.43C53.6434 144.843 53.6434 147.402 53.7161 149.888C53.7889 150.253 54.0073 150.253 54.0073 149.888Z" fill="#E5C100"/>
        <path d="M57.9377 149.668C57.4282 147.475 57.5738 145.355 57.9377 143.161C57.9377 143.088 57.7922 142.649 57.7194 142.942C56.9915 145.281 57.1371 147.767 57.6466 150.107C57.7922 150.473 58.0105 149.888 57.9377 149.668Z" fill="#E5C100"/>
        <path d="M61.941 149.961C62.0137 147.768 62.3049 145.94 63.0328 143.892C63.0328 143.819 63.0328 143.234 62.8872 143.454C61.577 145.355 61.577 147.694 61.6498 149.888C61.6498 150.18 61.8682 150.4 61.941 149.961Z" fill="#E5C100"/>
        <path d="M65.2163 150.546C66.4537 148.06 67.1088 145.281 67.4727 142.576C67.4727 142.503 67.3999 142.357 67.3999 142.503C66.6721 145.135 66.3081 147.84 65.1436 150.4C65.0708 150.4 65.1436 150.619 65.2163 150.546Z" fill="#E5C100"/>
        <path d="M70.3113 150.399C70.3113 148.279 70.4569 146.305 70.8209 144.258C70.8209 144.185 70.7481 143.892 70.6753 144.111C70.093 146.159 70.093 148.279 70.093 150.399C70.093 150.692 70.3113 150.692 70.3113 150.399Z" fill="#E5C100"/>
        <path d="M72.5677 149.888C72.5677 148.499 72.7133 147.183 73.6595 146.086C73.7323 146.013 73.6595 145.72 73.5867 145.793C72.4949 146.89 72.4222 148.426 72.4222 149.888C72.3494 150.107 72.5677 150.107 72.5677 149.888Z" fill="#E5C100"/>
        <path d="M96.5144 147.548C96.4416 148.499 96.2232 149.449 96.0776 150.326C95.9321 151.277 95.6409 152.447 95.9321 153.397C95.9321 153.47 96.0776 153.617 96.1504 153.47C96.5144 152.52 96.3688 151.277 96.5144 150.326C96.5871 149.449 96.8055 148.572 96.7327 147.694C96.7327 147.402 96.5871 147.256 96.5144 147.548Z" fill="#E5C100"/>
        <path d="M100.445 145.939C100.372 147.987 100.154 150.18 100.518 152.227C100.518 152.374 100.736 152.52 100.736 152.301C101.1 150.253 100.882 147.987 100.809 145.939C100.736 145.428 100.445 145.501 100.445 145.939Z" fill="#E5C100"/>
        <path d="M103.793 147.621C103.72 149.157 103.647 150.692 103.793 152.227C103.793 152.52 104.011 152.447 104.011 152.227C104.157 150.692 104.084 149.157 104.011 147.621C104.084 147.182 103.793 147.255 103.793 147.621Z" fill="#E5C100"/>
        <path d="M103.866 147.987C104.448 148.864 104.958 149.669 105.54 150.546C106.049 151.35 106.559 152.447 107.287 153.032C107.505 153.178 107.432 152.52 107.432 152.447C107.068 151.57 106.486 150.838 105.977 150.034C105.321 149.084 104.739 148.133 104.084 147.183C103.866 146.89 103.72 147.768 103.866 147.987Z" fill="#E5C100"/>
        <path d="M94.9131 137.019C94.6947 138.043 94.4036 138.993 94.0396 139.944C93.239 141.918 92.9478 143.234 93.0934 145.354C93.3846 149.741 90.1092 150.326 86.3971 150.326C83.7768 150.326 81.0109 150.984 78.8273 149.083C76.7893 147.329 76.571 144.331 76.0615 141.845C74.4602 134.826 71.0392 128.099 68.9284 121.226C68.5645 120.129 67.9822 119.252 67.6183 118.228C67.1088 116.839 66.9632 115.304 66.5265 113.915C66.017 112.379 65.5075 110.917 65.2163 109.308C64.8524 107.261 64.2701 105.287 64.4157 103.167C64.634 99.657 66.2353 96.0744 67.8366 93.0766C72.7861 83.864 83.9951 80.2813 93.8941 81.5974C96.5871 81.963 98.5524 82.8404 100.954 84.0834C102.337 84.8145 103.72 85.107 104.739 86.3499C106.704 88.8359 107.942 93.4422 108.087 96.5862C108.306 100.388 107.141 103.532 106.049 107.115C104.011 114.353 100.226 120.934 97.2422 127.734C96.6599 129.123 96.5144 130.658 96.0776 132.12C95.5681 133.729 95.277 135.411 94.9131 137.019Z" fill="#FB7762"/>
        <path d="M83.6312 90.6639C82.685 92.3455 81.5932 94.2466 79.5552 94.539C75.6247 95.124 77.59 91.6875 77.5172 89.5671C76.0615 92.1262 74.0962 95.7089 70.6025 95.1971C70.3841 93.4423 70.7481 91.6875 71.7671 90.2983C70.1658 92.0531 68.4189 94.1003 68.4189 96.5863C68.4189 99.8765 71.2576 103.24 67.6183 105.872C63.3967 108.943 61.0675 102.509 60.2669 99.4378C59.3934 95.9282 58.7384 92.1993 58.8112 88.5435C58.8112 87.2274 59.1751 83.7179 60.7764 82.9867C62.6688 82.1093 63.1055 84.8877 62.8872 85.9113C63.0328 82.3287 61.1403 71.7269 67.6911 72.0193C69.8019 72.0924 69.8746 72.3849 70.3114 73.9935C70.9664 72.5311 71.6943 70.9226 72.8589 69.7527C73.8051 68.8022 75.1152 67.0475 76.4982 66.755C77.8811 66.3894 79.264 66.6819 80.2103 67.6324C81.1565 68.5098 81.0837 69.6065 81.0837 70.8495C82.9034 68.4367 84.5046 65.0002 88.4351 65.3658C90.9826 65.5851 90.2547 67.8517 90.4003 70.0452C91.4921 66.5356 95.9321 63.6841 99.7897 63.7572C104.011 63.8304 103.647 66.3163 102.046 69.314C103.429 66.5356 110.635 66.3894 112.091 69.0216C113.619 71.6538 112.382 77.8686 108.742 78.8191C108.015 74.0666 113.765 73.3354 114.711 77.6493C115.075 79.2578 114.929 81.305 114.711 82.9136C114.493 84.5953 113.765 86.0576 113.692 87.7392C113.546 89.9327 111.727 102.874 107.723 101.558C106.923 101.266 107.141 100.388 107.141 99.584C106.85 102.362 102.774 102.728 102.628 99.8034C102.483 97.1712 103.138 94.2466 101.828 91.8337C101.464 91.1757 100.809 89.494 100.081 89.2747C99.353 88.9822 98.334 89.7865 97.6789 90.0058C95.8593 90.737 83.9951 94.539 83.9224 90.1521C83.8496 90.2252 83.704 90.4445 83.6312 90.6639Z" fill="#141C41"/>
        <path d="M96.8059 122.909V122.762C96.7326 122.762 96.7326 122.909 96.8059 122.909Z" fill="#141C41"/>
        <path d="M60.6308 313.009C69.7291 312.79 78.609 314.033 87.6344 314.398C88.7262 314.472 88.7262 310.669 87.5617 310.669C78.609 310.743 69.074 308.549 60.558 312.059C60.3397 312.205 60.3397 313.009 60.6308 313.009Z" fill="#141C41"/>
        <path d="M87.0522 310.669C85.0142 313.448 79.4824 313.155 76.3526 313.302C76.1343 313.302 76.1343 314.033 76.3526 314.033C78.1723 314.106 79.9191 314.325 81.7388 314.325C83.5584 314.325 85.742 313.667 87.4161 314.691C89.3085 315.787 88.5079 308.695 87.0522 310.669Z" fill="#141C41"/>
        <path d="M84.2135 281.789C81.8116 283.105 81.9572 289.1 81.8844 291.294C81.7388 297.655 82.8306 303.943 82.8306 310.304C82.8306 314.179 85.5965 314.033 85.5965 310.231C85.6692 302.7 85.5965 295.169 85.5965 287.638C85.5965 284.859 83.3401 283.324 82.9034 286.907C81.666 296.777 82.4667 307.525 86.3243 316.811C86.5427 317.323 87.0522 318.054 87.7072 318.054C90.837 318.054 92.22 317.688 94.6219 315.787C95.6409 314.983 95.4954 312.424 94.5491 311.693C92.0744 309.792 90.6915 309.426 87.4889 309.426C87.9256 309.865 88.3623 310.231 88.8718 310.669C85.4509 303.87 84.6502 296.046 85.5965 288.588C84.723 288.369 83.7768 288.077 82.9034 287.857C82.9034 295.388 82.7578 302.919 82.9034 310.45C83.8496 310.45 84.7958 310.377 85.6692 310.377C85.3053 300.872 82.685 291.805 84.3591 282.3C84.3591 282.081 84.3591 281.789 84.2135 281.789Z" fill="#141C41"/>
        <path d="M80.8653 120.715C80.5742 120.568 80.283 120.422 80.0647 120.276C78.7545 119.472 77.6627 118.594 76.6437 117.424C76.0615 116.839 75.4064 115.889 75.1152 115.158C74.8241 114.427 75.1152 113.622 75.188 112.891C75.9887 113.257 76.6437 113.915 77.4444 114.207C78.609 114.646 79.1913 115.67 80.3558 116.108C81.5932 116.62 82.9761 116.839 84.3591 117.059C85.5964 117.205 86.5427 117.205 87.6344 116.547C88.5807 115.962 89.3813 115.304 90.4003 114.719C91.3465 114.134 92.2928 113.476 93.239 112.964C93.3846 114.427 92.5839 115.889 91.856 117.059C91.2737 117.936 90.837 119.033 90.1092 119.837C88.7262 121.373 86.1787 121.738 84.2135 121.592C83.0489 121.519 81.8843 121.226 80.8653 120.715Z" fill="white"/>
        <path d="M71.1848 97.5366C70.5297 96.7324 70.2386 99.5108 70.2386 99.7301C70.1658 101.266 70.6753 102.728 71.9127 103.605C74.3874 105.433 75.9159 100.169 76.4982 98.7796C76.6437 98.3409 76.6437 97.8291 76.4982 97.3904C76.3526 97.0248 76.0615 97.0248 75.9159 97.3904C75.4064 98.7065 74.6785 101.924 72.8589 101.997C71.6215 101.997 71.112 100.461 71.0392 99.5108C70.9664 98.999 71.0392 98.4871 71.2576 98.0484C71.2576 97.9022 71.3304 97.6829 71.1848 97.5366Z" fill="#141C41"/>
        <path d="M93.7485 95.2702C93.1662 97.4637 93.6757 102.289 96.8055 102.216C99.2802 102.143 99.717 97.4636 100.008 95.7089C100.081 95.3433 100.081 94.9046 99.8625 94.539C99.6442 94.2466 99.4258 94.6121 99.353 94.8315C99.0619 96.5863 98.8435 99.5109 97.1694 100.535C95.8593 101.266 94.6947 99.7302 94.4036 98.6335C94.1124 97.5368 94.258 96.3669 93.9669 95.2702C93.9669 95.0508 93.8213 95.1239 93.7485 95.2702Z" fill="#141C41"/>
        <path d="M82.8306 95.0507C82.3938 96.2206 82.6122 97.5367 82.685 98.7065C82.8306 101.192 82.6122 103.167 81.8843 105.579C81.1565 107.919 79.9919 111.941 82.5394 113.842C84.8686 115.523 86.2515 111.721 86.761 110.039C87.9984 105.726 87.0522 101.192 86.2515 96.8786C85.9604 95.197 85.0141 96.4399 85.2325 97.6098C85.742 100.827 86.8338 104.483 86.1787 107.7C85.9604 108.87 85.5236 110.039 84.8686 111.063C83.5584 113.257 81.8843 110.917 82.1755 109.016C82.5394 106.603 83.4856 104.336 83.6312 101.924C83.704 99.7301 83.1945 97.3904 83.1217 95.197C83.0489 95.1238 82.9033 94.7583 82.8306 95.0507Z" fill="#141C41"/>
        <path d="M47.2382 161.805C47.2382 161.659 47.1654 161.44 47.0926 161.293C47.0198 161.074 46.7287 160.27 46.292 160.562C46.0736 160.782 45.7825 160.855 45.5641 161.147C45.4185 161.074 45.273 161.074 45.1274 161.147C44.2539 161.878 44.2539 163.487 44.5451 164.437C44.6907 165.022 45.1274 165.68 45.7825 165.461C46.5831 165.242 46.947 164.584 47.1654 163.852C47.6749 163.56 47.6021 162.317 47.2382 161.805Z" fill="#E5C100"/>
        <path d="M58.2289 248.156C57.9377 247.936 57.3554 248.009 57.0643 248.082C56.9187 248.082 56.7731 248.302 56.7731 248.521C56.7004 248.521 56.6276 248.594 56.5548 248.594C56.1909 248.814 56.1181 249.398 56.1181 249.764C56.1909 250.203 56.4092 250.422 56.7004 250.495C56.7732 250.788 56.8459 251.08 57.1371 251.007C58.0833 250.788 58.7384 250.276 58.7384 249.252C58.6656 248.887 58.5928 248.448 58.2289 248.156Z" fill="#E5C100"/>
        <path d="M96.2232 250.861C96.1504 250.861 96.0776 250.861 96.0048 250.934C95.9321 250.715 95.7865 250.568 95.5681 250.715C95.3498 250.788 95.1314 250.934 94.9858 251.08C94.9131 251.08 94.9131 251.08 94.8403 251.153C94.6219 251.226 94.5491 251.519 94.5491 251.738C94.4763 251.958 94.4035 252.177 94.4035 252.396C94.3308 252.469 94.258 252.543 94.258 252.616C94.0396 252.908 94.1124 253.42 94.258 253.712C94.5491 254.151 95.0586 254.37 95.4953 254.151C95.6409 254.224 95.7137 254.224 95.8593 254.297C96.1504 254.37 96.296 253.639 96.296 253.493C96.296 253.42 96.296 253.347 96.296 253.347C96.4416 252.981 96.5143 252.396 96.5871 252.104C96.6599 251.738 96.6599 250.861 96.2232 250.861Z" fill="#E5C100"/>
        <path d="M115.293 253.493C115.293 253.42 115.293 253.274 115.22 253.201C115.22 253.127 115.22 253.054 115.22 252.981C115.148 252.469 114.929 252.104 114.711 251.738C114.638 251.592 114.493 251.373 114.347 251.519C113.765 252.031 113.474 253.054 113.619 253.786C113.692 254.005 113.765 254.297 113.91 254.37C114.056 254.517 114.201 254.663 114.347 254.736C114.493 255.102 114.784 255.029 114.929 254.736C115.002 254.59 115.002 254.517 115.075 254.37C115.293 254.078 115.293 253.712 115.293 253.493Z" fill="#E5C100"/>
        <path d="M127.521 251.519C127.448 251.446 127.303 251.153 127.157 251.226C127.012 251.226 126.866 251.3 126.793 251.373C126.793 251.373 126.793 251.373 126.721 251.373C126.648 251.3 126.502 251.3 126.429 251.373C125.702 251.958 125.265 252.469 125.338 253.42C125.338 254.078 125.556 254.955 126.284 255.175C126.866 255.321 127.303 255.102 127.594 254.517C128.104 253.639 127.885 252.396 127.521 251.519Z" fill="#E5C100"/>
        <path d="M57.5738 162.39C57.501 162.171 57.2827 161.952 57.0643 161.732C57.0643 161.732 56.9915 161.732 56.9915 161.659C56.6276 161.44 56.1909 161.367 55.8997 161.659C55.3902 162.025 55.3902 162.756 55.3902 163.341C55.3902 163.56 55.463 163.926 55.5358 164.218C55.6086 164.584 55.6814 165.315 56.1181 165.242C56.6276 165.169 57.1371 165.096 57.5738 164.657C57.9377 164.145 57.7922 162.975 57.5738 162.39Z" fill="#E5C100"/>
        <path d="M69.2923 164.511C69.6563 164.072 69.6563 163.341 69.4379 162.683C69.3651 162.463 69.3651 162.317 69.2923 162.098C69.2196 162.025 69.2196 161.805 69.074 161.805C69.0012 161.732 69.0012 161.659 68.9284 161.659C68.4917 161.001 67.9822 161.732 67.7638 162.171C67.7638 162.244 67.6911 162.317 67.6911 162.39C67.1816 162.536 67.1816 163.414 67.3999 163.999C67.3999 164.145 67.3999 164.291 67.3999 164.364C67.3999 164.584 67.4727 165.242 67.7638 165.242C68.055 165.242 68.3461 165.169 68.6373 165.022C68.7101 165.022 68.7828 164.949 68.8556 164.876C68.8556 164.876 68.8556 164.876 68.9284 164.876C69.074 164.73 69.2196 164.657 69.2923 164.511Z" fill="#E5C100"/>
        <path d="M83.4856 163.926C83.3401 163.341 83.2673 162.902 82.9761 162.391C82.9034 162.244 82.7578 162.244 82.685 162.317C82.6122 162.171 82.4666 162.025 82.3211 162.098C82.0299 162.244 81.8116 162.464 81.666 162.683C81.5204 162.683 81.3749 162.756 81.2293 162.829C80.7198 163.122 80.9381 164.145 81.1565 164.511C81.2293 164.657 81.3749 164.803 81.5204 164.95C81.5932 165.242 81.8116 165.534 82.1027 165.388C82.1027 165.388 82.1755 165.388 82.1755 165.315C82.3211 165.315 82.5394 165.315 82.685 165.169C82.8306 165.169 83.0489 165.169 83.1945 165.169C83.6312 165.169 83.4856 164.218 83.4856 163.926Z" fill="#E5C100"/>
        <path d="M118.932 165.534C118.86 165.242 118.86 165.023 118.714 164.803C118.423 164.218 117.841 163.926 117.331 164.511C117.331 164.511 117.331 164.584 117.258 164.584C116.967 164.73 116.822 165.242 116.822 165.607C116.749 166.192 116.822 166.631 116.967 167.216V167.289C116.967 167.435 117.04 167.582 117.113 167.655C117.258 167.801 117.404 168.093 117.622 168.167C117.768 168.24 118.059 168.167 118.277 168.093C118.569 167.947 118.787 167.728 118.932 167.362C119.078 166.85 119.078 166.119 118.932 165.534Z" fill="#E5C100"/>
        <path d="M50.5863 250.642C50.4408 250.13 49.9313 249.179 49.349 249.472C49.349 249.472 49.349 249.472 49.2762 249.472C49.2762 249.472 49.2762 249.545 49.2034 249.545C49.1306 249.545 49.1306 249.618 49.1306 249.691V249.764C48.7667 249.837 48.8395 250.715 49.0578 250.934C49.1306 251.007 49.2034 251.08 49.2762 251.153C49.349 251.3 49.4945 251.446 49.6401 251.519C49.7857 251.592 49.9313 251.665 50.0768 251.738C50.2224 251.811 50.2952 251.665 50.368 251.519C50.368 251.519 50.4408 251.519 50.4408 251.592C50.6591 251.811 50.6591 250.861 50.5863 250.642Z" fill="#E5C100"/>
        <path d="M70.5297 250.714L70.4569 250.641C70.4569 250.275 70.3114 249.983 70.093 250.129C70.093 250.129 70.093 250.129 70.0202 250.129C69.8746 250.056 69.5835 250.129 69.3651 250.129C69.2196 250.129 69.074 250.056 69.0012 250.056C68.7101 250.056 68.6373 250.568 68.7101 251.007C68.6373 250.934 68.5645 250.934 68.4917 250.86C68.2733 250.787 68.3461 251.299 68.3461 251.372C68.6373 252.176 69.074 252.761 69.9474 252.835C70.0202 252.835 70.093 252.688 70.1658 252.615C70.2386 252.469 70.2386 252.323 70.3114 252.103H70.3841C70.8937 252.176 70.6753 250.934 70.5297 250.714Z" fill="#E5C100"/>
        <path d="M107.723 252.908C107.651 252.688 107.505 252.542 107.359 252.469C107.287 252.25 107.214 251.957 107.068 251.738C106.996 251.592 106.85 251.665 106.777 251.738C106.632 251.884 106.413 252.03 106.268 252.176C106.195 252.25 106.122 252.323 106.049 252.469C105.758 252.688 105.831 253.419 105.977 253.712C106.049 253.858 106.122 254.004 106.122 254.151C106.195 254.516 106.413 254.809 106.632 254.955C106.777 255.101 106.923 255.101 107.141 255.028C107.432 255.32 107.723 255.101 107.869 254.735C108.16 254.224 108.087 253.493 107.723 252.908Z" fill="#E5C100"/>
    </g>
    <defs>
        <clipPath id="clip0_9_475">
            <rect width="180" height="390" fill="white"/>
        </clipPath>
    </defs>
</svg>
