<svg width="19" height="19" viewBox="0 0 19 19" fill="none" xmlns="http://www.w3.org/2000/svg">
    <g clip-path="url(#clip0_9_121)">
        <path d="M11.003 1.5719H4.71554C4.29866 1.5719 3.89885 1.73751 3.60407 2.03229C3.30928 2.32707 3.14368 2.72688 3.14368 3.14376V15.7187C3.14368 16.1356 3.30928 16.5354 3.60407 16.8302C3.89885 17.1249 4.29866 17.2906 4.71554 17.2906H14.1467C14.5636 17.2906 14.9634 17.1249 15.2582 16.8302C15.553 16.5354 15.7186 16.1356 15.7186 15.7187V6.2875L11.003 1.5719Z" stroke="black" stroke-width="1.57187" stroke-linecap="round" stroke-linejoin="round"/>
        <path d="M11.0031 1.5719V6.2875H15.7186" stroke="black" stroke-width="1.57187" stroke-linecap="round" stroke-linejoin="round"/>
        <path d="M12.5749 10.2172H6.28748" stroke="black" stroke-width="1.57187" stroke-linecap="round" stroke-linejoin="round"/>
        <path d="M12.5749 13.3608H6.28748" stroke="black" stroke-width="1.57187" stroke-linecap="round" stroke-linejoin="round"/>
        <path d="M7.85934 7.07343H7.07341H6.28748" stroke="black" stroke-width="1.57187" stroke-linecap="round" stroke-linejoin="round"/>
    </g>
    <defs>
        <clipPath id="clip0_9_121">
            <rect width="18.8624" height="18.8624" fill="white"/>
        </clipPath>
    </defs>
</svg>
